<svg id="Слой_1" data-name="Слой 1" xmlns="http://www.w3.org/2000/svg" viewBox="0 0 1417.32 1417.32"><defs><style>.cls-1{fill:#fff;}</style></defs><title>дверь-ико</title><path class="cls-1" d="M912.94,306.57H517.6v810.32H912.94ZM895.11,774.42a14.27,14.27,0,1,1-28.55,0V721.69a14.27,14.27,0,0,1,28.55,0Zm0-217.22a25.47,25.47,0,0,1-25.43,25.43H566a25.45,25.45,0,0,1-25.43-25.43V392.68A25.45,25.45,0,0,1,566,367.25H869.68a25.48,25.48,0,0,1,25.43,25.43Z" transform="translate(-7.09 -7.09)"/><rect class="cls-1" x="373.65" y="1138.38" width="669.09" height="28.28"/><rect class="cls-1" x="562.05" y="388.71" width="297.42" height="158.29"/><path class="cls-1" d="M715.75,7.09C324.37,7.09,7.09,324.37,7.09,715.75s317.29,708.66,708.66,708.66,708.66-317.29,708.66-708.66S1107.12,7.09,715.75,7.09ZM430.25,253.21a25.45,25.45,0,0,1,25.43-25.43H974.86a25.45,25.45,0,0,1,25.43,25.43V745.82a14.27,14.27,0,0,1-28.55,0V256.33H458.8V745.62a14.27,14.27,0,1,1-28.55,0Zm648.12,924.52a24.6,24.6,0,0,1-24.56,24.58H376.75a24.59,24.59,0,0,1-24.56-24.58v-36.25a24.58,24.58,0,0,1,24.56-24.56h53.51V803.15a14.27,14.27,0,1,1,28.55,0v313.77H489V303.45A25.45,25.45,0,0,1,514.48,278H916.05a25.45,25.45,0,0,1,25.43,25.43v813.46h30.26V803.3a14.27,14.27,0,1,1,28.55,0v313.61h53.51a24.6,24.6,0,0,1,24.56,24.56Z" transform="translate(-7.09 -7.09)"/></svg>