<svg id="Слой_1" data-name="Слой 1" xmlns="http://www.w3.org/2000/svg" viewBox="0 0 1417.35 1417.35"><title>Монтажная область 1</title><rect x="530.64" y="994.61" width="376.22" height="46.25"/><rect x="530.64" y="1068.85" width="376.22" height="46.25"/><rect x="371.13" y="338.2" width="152.25" height="29.02"/><polygon points="401.77 501.9 497.69 418.44 497.69 395.19 401.77 395.19 401.77 501.9"/><rect x="530.64" y="920.39" width="376.22" height="46.25"/><polygon points="937.12 699.68 500.36 699.68 500.36 743.92 920.84 743.92 937.12 743.92 937.12 699.68"/><path d="M708.67,0C317.29,0,0,317.29,0,708.67s317.29,708.67,708.67,708.67S1417.34,1100,1417.34,708.67,1100.05,0,708.67,0Zm500.49,671.44a21.44,21.44,0,0,1-20.24,14h-94.51v422.29a35.38,35.38,0,0,1-35.34,35.32H378.38a35.34,35.34,0,0,1-35.3-35.32v-107.2a14,14,0,1,1,28,0v107.2a7.36,7.36,0,0,0,7.35,7.35H502.65V771.92H489.37a17,17,0,0,1-17-17V688.67a17,17,0,0,1,17-17H948.12a17,17,0,0,1,17,17h0v66.25a17,17,0,0,1-17,17H934.83v343.19h124.24a7.36,7.36,0,0,0,7.35-7.35V677.92l-86.7-75.5-261-227.12-261,227.12-86.66,75.5v256.4a14,14,0,0,1-28,0h0V685.46h-94.5a21.6,21.6,0,0,1-14.19-37.88L373.8,526.24V395.18h-8.75a21.92,21.92,0,0,1-21.89-21.89V332.12a21.92,21.92,0,0,1,21.89-21.91H529.46a21.93,21.93,0,0,1,21.91,21.91v39.59L704.65,238.3a21.54,21.54,0,0,1,28.17,0l217.5,189.29a14,14,0,1,1-18.4,21.11h0L718.75,263.15,520.86,435.36,397,543.19,265.61,657.47h86.25l352.79-307a21.59,21.59,0,0,1,28.17,0l352.79,307h86.25L982.06,492.32a14,14,0,0,1,18.37-21.11L1203.1,647.58a21.43,21.43,0,0,1,6.06,23.85Z"/><rect x="530.64" y="846.14" width="376.22" height="46.25"/><rect x="530.64" y="771.92" width="376.22" height="46.25"/></svg>