<svg id="Слой_1" data-name="Слой 1" xmlns="http://www.w3.org/2000/svg" viewBox="0 0 1417.35 1417.35"><title>Монтажная область 1</title><rect x="958.43" y="679.24" width="41.53" height="52.89"/><path d="M921.81,866.61h4.83a7.67,7.67,0,0,0,7.66-7.66V371.19H914.15V858.92a7.67,7.67,0,0,0,7.65,7.69Z"/><rect x="416.53" y="371.19" width="473.49" height="52.89"/><path d="M738,756.24v267.92H962.92V756.24H958.4V858.92a31.83,31.83,0,0,1-31.8,31.78h-4.83A31.81,31.81,0,0,1,890,858.92V756.24Z"/><rect x="958.45" y="602.23" width="41.53" height="52.89"/><rect x="958.45" y="448.2" width="41.53" height="52.89"/><rect x="958.45" y="371.19" width="41.53" height="52.89"/><rect x="958.45" y="525.23" width="41.53" height="52.89"/><rect x="416.53" y="602.23" width="473.49" height="52.89"/><rect x="416.53" y="448.2" width="473.49" height="52.89"/><path d="M708.67,0C317.29,0,0,317.29,0,708.67s317.29,708.67,708.67,708.67S1417.34,1100,1417.34,708.67,1100.05,0,708.67,0ZM339.49,316.45a22.32,22.32,0,0,1,22.31-22.31h692.91A22.32,22.32,0,0,1,1077,316.45v82.77a12.06,12.06,0,1,1-24.12,0v-81H363.6V869.41a12.06,12.06,0,0,1-24.12,0Zm786.2,804a21.37,21.37,0,0,1-21.36,21.36H312.17a21.39,21.39,0,0,1-21.38-21.36v-44a21.39,21.39,0,0,1,21.38-21.36h27.32v-128a12.06,12.06,0,0,1,24.12,0v128H392.4V368.58A21.57,21.57,0,0,1,413.92,347h588.6a21.56,21.56,0,0,1,21.53,21.53v686.51h28.87V457.21a12.07,12.07,0,0,1,24.14,0v597.88h27.3a21.37,21.37,0,0,1,21.36,21.36Z"/><path d="M1000,756.24H987.11v269.68a22.38,22.38,0,0,1-22.36,22.34H736.22a22.38,22.38,0,0,1-22.36-22.34V756.24H702.62v269.68a22.36,22.36,0,0,1-22.34,22.34H451.75a22.36,22.36,0,0,1-22.33-22.34V756.24H416.53v298.85H1000Z"/><rect x="314.94" y="1079.22" width="786.64" height="38.5"/><rect x="416.53" y="525.23" width="473.49" height="52.89"/><rect x="416.53" y="679.24" width="473.49" height="52.89"/><rect x="453.54" y="756.27" width="224.96" height="267.9"/></svg>