<svg id="Слой_1" data-name="Слой 1" xmlns="http://www.w3.org/2000/svg" viewBox="0 0 1417.35 1417.35"><defs><style>.cls-1{fill:#fff;}</style></defs><title>домик-ико</title><rect class="cls-1" x="530.64" y="994.61" width="376.22" height="46.25"/><rect class="cls-1" x="530.64" y="1068.85" width="376.22" height="46.25"/><rect class="cls-1" x="371.13" y="338.2" width="152.25" height="29.02"/><polygon class="cls-1" points="401.77 501.9 497.69 418.44 497.69 395.19 401.77 395.19 401.77 501.9"/><rect class="cls-1" x="530.64" y="920.39" width="376.22" height="46.25"/><polygon class="cls-1" points="937.12 699.68 500.36 699.68 500.36 743.92 920.84 743.92 937.12 743.92 937.12 699.68"/><path class="cls-1" d="M715.75,7.08C324.37,7.08,7.08,324.37,7.08,715.75s317.29,708.67,708.67,708.67,708.67-317.29,708.67-708.67S1107.13,7.08,715.75,7.08Zm500.49,671.44a21.44,21.44,0,0,1-20.24,14h-94.51v422.29a35.38,35.38,0,0,1-35.34,35.32H385.46a35.34,35.34,0,0,1-35.3-35.32v-107.2a14,14,0,0,1,28,0v107.2a7.36,7.36,0,0,0,7.35,7.35H509.73V779H496.45a17,17,0,0,1-17-17V695.75a17,17,0,0,1,17-17H955.2a17,17,0,0,1,17,17V762a17,17,0,0,1-17,17H941.91v343.19h124.24a7.36,7.36,0,0,0,7.35-7.35V685L986.8,609.5l-261-227.12-261,227.12L378.14,685V941.4a14,14,0,0,1-28,0V692.54H255.64a21.6,21.6,0,0,1-14.19-37.88L380.88,533.32V402.26h-8.75a21.92,21.92,0,0,1-21.89-21.89V339.2a21.92,21.92,0,0,1,21.89-21.91H536.54a21.93,21.93,0,0,1,21.91,21.91v39.59L711.73,245.38a21.54,21.54,0,0,1,28.17,0L957.4,434.67A14,14,0,1,1,939,455.78L725.83,270.23,527.94,442.44,404.06,550.27,272.69,664.55h86.25l352.79-307a21.59,21.59,0,0,1,28.17,0l352.79,307h86.25L989.14,499.4a14,14,0,0,1,18.37-21.11l202.67,176.37A21.43,21.43,0,0,1,1216.24,678.51Z" transform="translate(-7.08 -7.08)"/><rect class="cls-1" x="530.64" y="846.14" width="376.22" height="46.25"/><rect class="cls-1" x="530.64" y="771.92" width="376.22" height="46.25"/></svg>