<svg id="Слой_1" data-name="Слой 1" xmlns="http://www.w3.org/2000/svg" viewBox="0 0 1417.35 1417.35"><defs><style>.cls-1{fill:#fff;}</style></defs><title>окно ролет-ико</title><rect class="cls-1" x="958.43" y="679.24" width="41.53" height="52.89"/><path class="cls-1" d="M928.89,873.69h4.83a7.67,7.67,0,0,0,7.66-7.66V378.27H921.23V866A7.67,7.67,0,0,0,928.89,873.69Z" transform="translate(-7.08 -7.08)"/><rect class="cls-1" x="416.53" y="371.19" width="473.49" height="52.89"/><path class="cls-1" d="M745.08,763.32v267.92H970V763.32h-4.52V866a31.83,31.83,0,0,1-31.8,31.78h-4.83A31.81,31.81,0,0,1,897.12,866V763.32Z" transform="translate(-7.08 -7.08)"/><rect class="cls-1" x="958.45" y="602.23" width="41.53" height="52.89"/><rect class="cls-1" x="958.45" y="448.2" width="41.53" height="52.89"/><rect class="cls-1" x="958.45" y="371.19" width="41.53" height="52.89"/><rect class="cls-1" x="958.45" y="525.23" width="41.53" height="52.89"/><rect class="cls-1" x="416.53" y="602.23" width="473.49" height="52.89"/><rect class="cls-1" x="416.53" y="448.2" width="473.49" height="52.89"/><path class="cls-1" d="M715.75,7.08C324.37,7.08,7.08,324.37,7.08,715.75s317.29,708.67,708.67,708.67,708.67-317.29,708.67-708.67S1107.13,7.08,715.75,7.08ZM346.57,323.53a22.32,22.32,0,0,1,22.31-22.31h692.91a22.32,22.32,0,0,1,22.31,22.31V406.3a12.06,12.06,0,1,1-24.12,0V325.35H370.68V876.49a12.06,12.06,0,0,1-24.12,0Zm786.2,804.05a21.37,21.37,0,0,1-21.36,21.36H319.25a21.39,21.39,0,0,1-21.38-21.36v-44a21.39,21.39,0,0,1,21.38-21.36h27.32v-128a12.06,12.06,0,1,1,24.12,0v128h28.79V375.66A21.57,21.57,0,0,1,421,354.13h588.6a21.56,21.56,0,0,1,21.53,21.53v686.51H1060V464.29a12.07,12.07,0,1,1,24.14,0v597.88h27.3a21.37,21.37,0,0,1,21.36,21.36Z" transform="translate(-7.08 -7.08)"/><path class="cls-1" d="M1007.06,763.32H994.19V1033a22.38,22.38,0,0,1-22.36,22.34H743.3A22.38,22.38,0,0,1,720.94,1033V763.32H709.7V1033a22.36,22.36,0,0,1-22.34,22.34H458.83A22.36,22.36,0,0,1,436.5,1033V763.32H423.61v298.85h583.45Z" transform="translate(-7.08 -7.08)"/><rect class="cls-1" x="314.94" y="1079.22" width="786.64" height="38.5"/><rect class="cls-1" x="416.53" y="525.23" width="473.49" height="52.89"/><rect class="cls-1" x="416.53" y="679.24" width="473.49" height="52.89"/><rect class="cls-1" x="453.54" y="756.27" width="224.96" height="267.9"/></svg>