<svg id="Слой_1" data-name="Слой 1" xmlns="http://www.w3.org/2000/svg" viewBox="0 0 1417.32 1417.32"><defs><style>.cls-1{fill:#fff;}</style></defs><title>tel-icon-dunco</title><path class="cls-1" d="M916.18,867.45l-.35-.47c-5.84-6.31-15.42-13.67-27.1-13.67-11.91,0-22.08,7.71-28.38,14.13l-64.48,64.36c-3.15,3.15-13,13-28.62,13a41.23,41.23,0,0,1-18.57-4.67c-.82-.35-1.52-.93-2.34-1.28-5.37-3.39-11.8-6.66-18.57-10a238.72,238.72,0,0,1-23.13-12.62C644.13,878,589.35,828.09,537.37,764.08l-.12-.23c-28.62-36.33-47.54-66.81-60.86-99.17l-.58-1.75c-3.39-10.75-6.42-26.52,9.81-42.75a7,7,0,0,1,.93-.93c16.35-14.72,31.42-29.79,47.31-45.91,5.37-5.26,10.63-10.75,16.12-16.24,20-20,20-38.43,0-58.29l-51.4-51.4c-6-6.31-12-12.26-17.87-18.34-11.45-11.8-22.43-22.89-33.87-33.64l-.58-.58c-6.07-6.07-15.65-13.2-27.45-13.2-9.69,0-19.39,4.67-28.62,13.32l-64.24,64.24c-15.65,15.65-24.06,33.87-25.93,56-2.92,34.46,3.5,71,21,117.86,28.5,76.86,71.37,148.34,135.61,225.79,77.68,92.74,171.36,166,277.88,217.61,38.9,18.57,90.88,40.42,146.83,44,2.8.23,5.84.23,8.64.23,29.44,0,51.86-9.69,70.78-30,11.68-13.67,24.18-25.93,36.33-37.61,8.18-7.94,15.65-15.07,23-23-.23.23-.23,0,0,0,19.16-20,19.16-39.71-.23-58.87Z" transform="translate(-7.09 -7.07)"/><path class="cls-1" d="M715.75,7.07C324.38,7.07,7.09,324.35,7.09,715.73s317.29,708.66,708.66,708.66,708.66-317.29,708.66-708.66S1107.13,7.07,715.75,7.07Zm-6.5,455a25.63,25.63,0,0,1,29.44-20.79A293,293,0,0,1,977.44,680.06a25.62,25.62,0,0,1-20.91,29.44c-1.52.12-2.8.35-4.32.35A25.32,25.32,0,0,1,927.1,688.7a239,239,0,0,0-67.4-129.89c-35.74-35.74-80.6-59.1-129.89-67.4A25.15,25.15,0,0,1,709.25,462.1Zm347.44,603.23c-8.18,8.41-16.35,16.59-24.53,24.3-11.8,11.45-23.13,22.19-32.94,34-.12.47-.58.58-.7.93-28.62,31.07-65.18,46.72-108.63,46.72-3.85,0-7.94-.12-11.91-.35-64.59-4.09-122.41-28.38-165.63-48.94-113.42-54.78-212.59-132.58-295.05-231-68-81.65-113.54-157.92-144-240.27C260.77,617.13,244.65,566,249.09,511c3-34,16.82-63.43,40.88-87.49l64-64.59.35-.35c18.92-18.11,41.12-27.68,64-27.68s44.85,9.58,63.08,27.68c12.26,11.21,24.18,23.36,35.39,35,5.72,6,11.68,12,17.52,17.87l51.4,51.4c39.6,39.48,39.6,90.76,0,130.24-5.26,5.26-10.51,10.75-15.77,16-13.9,14.13-28.27,28.85-43.69,43,11.45,25.35,27.33,50.46,50.81,80.13,48.59,59.69,99.29,105.83,155,141.22,5.49,3.39,11.8,6.66,18.57,10,4.79,2.45,9.69,4.91,14.6,7.48l59.45-59.34c19-18.92,41.23-29,64.36-29,23.36,0,45.44,10.16,63.66,29.2l103.37,103.72c19,18.81,29,41.23,29,64.59C1085.08,1023.27,1075.27,1045.93,1056.69,1065.32Zm61.39-363.63a27,27,0,0,1-4.32.35,25.33,25.33,0,0,1-25.11-21c-14.83-87.72-56.3-167.73-120-231.39-63.54-63.43-143.56-105-231.39-120a25.4,25.4,0,0,1-20.79-29.32c2.34-13.78,15.42-23.24,29.08-20.79,98.35,16.82,187.71,63.08,259,134.33s117.51,160.61,134.21,258.84A24.88,24.88,0,0,1,1118.09,701.69Z" transform="translate(-7.09 -7.07)"/></svg>