<svg id="Слой_1" data-name="Слой 1" xmlns="http://www.w3.org/2000/svg" viewBox="0 0 1417.35 1417.35"><defs><style>.cls-1{fill:#fff;}</style></defs><title>ворота-ико</title><path class="cls-1" d="M568.82,596.54a321,321,0,0,1,54.69-19.6V550.55a297.13,297.13,0,0,0-54.69,21.69Z" transform="translate(-7.08 -7.08)"/><rect class="cls-1" x="561.76" y="978.08" width="54.67" height="30.66"/><path class="cls-1" d="M568.82,960.21h54.69V603a295.58,295.58,0,0,0-54.69,21.67Z" transform="translate(-7.08 -7.08)"/><rect class="cls-1" x="641.38" y="978.08" width="54.67" height="30.66"/><rect class="cls-1" x="641.38" y="824.69" width="54.67" height="128.45"/><path class="cls-1" d="M703.12,590.68a337.06,337.06,0,0,0-54.67,6.26V747.66h54.67Z" transform="translate(-7.08 -7.08)"/><rect class="cls-1" x="720.99" y="978.08" width="54.67" height="30.66"/><path class="cls-1" d="M489.21,634.66v15.74a289.66,289.66,0,0,1,54.67-40.86V586.78C513.12,606.89,495.2,627.22,489.21,634.66Z" transform="translate(-7.08 -7.08)"/><rect class="cls-1" x="482.13" y="978.08" width="54.67" height="30.66"/><rect class="cls-1" x="406.68" y="978.08" width="50.51" height="30.66"/><rect class="cls-1" x="200.4" y="512.68" width="219.91" height="41.44"/><path class="cls-1" d="M246.07,624.55h36.79a12.47,12.47,0,0,1,0,24.94H246.07V768.74h36.79a12.47,12.47,0,0,1,0,24.94H246.07V913h36.79a12.47,12.47,0,0,1,0,24.94H246.07v114.53H388.82V1010H352a12.48,12.48,0,0,1,0-25h36.81V865.79H352a12.47,12.47,0,1,1,0-24.94h36.81V721.6H352a12.47,12.47,0,1,1,0-24.94h36.81V586.16H246.07Z" transform="translate(-7.08 -7.08)"/><path class="cls-1" d="M317.44,435.91a71.48,71.48,0,0,0-70.26,58.9H387.7A71.48,71.48,0,0,0,317.44,435.91Z" transform="translate(-7.08 -7.08)"/><path class="cls-1" d="M489.21,687.08V960.21h54.67v-321C513.12,659.31,495.2,679.67,489.21,687.08Z" transform="translate(-7.08 -7.08)"/><rect class="cls-1" x="720.99" y="824.69" width="54.67" height="128.45"/><rect class="cls-1" x="406.68" y="688.25" width="50.51" height="264.89"/><rect class="cls-1" x="406.68" y="635.8" width="50.51" height="27.48"/><path class="cls-1" d="M703.12,538.26a337.36,337.36,0,0,0-54.67,6.26v26.92a369.76,369.76,0,0,1,54.67-5.72Z" transform="translate(-7.08 -7.08)"/><rect class="cls-1" x="959.85" y="635.8" width="50.51" height="27.48"/><path class="cls-1" d="M887.31,587v22.58A290.63,290.63,0,0,1,942,650.41V634.68C935.95,627.27,918,607,887.31,587Z" transform="translate(-7.08 -7.08)"/><rect class="cls-1" x="959.85" y="688.25" width="50.51" height="264.89"/><rect class="cls-1" x="959.85" y="978.08" width="50.51" height="30.66"/><path class="cls-1" d="M1113.75,435.91a71.48,71.48,0,0,0-70.26,58.9H1184A71.44,71.44,0,0,0,1113.75,435.91Z" transform="translate(-7.08 -7.08)"/><path class="cls-1" d="M1042.37,696.66h36.81a12.47,12.47,0,1,1,0,24.94h-36.81V840.85h36.81a12.47,12.47,0,1,1,0,24.94h-36.81V985h36.81a12.48,12.48,0,0,1,0,25h-36.81v42.42h142.75V937.9h-36.81a12.47,12.47,0,0,1,0-24.94h36.81V793.69h-36.81a12.47,12.47,0,0,1,0-24.94h36.81V649.49h-36.81a12.47,12.47,0,0,1,0-24.94h36.81V586.16H1042.37Z" transform="translate(-7.08 -7.08)"/><path class="cls-1" d="M715.75,7.08C324.37,7.08,7.08,324.37,7.08,715.75s317.29,708.67,708.67,708.67,708.67-317.29,708.67-708.67S1107.13,7.08,715.75,7.08Zm520.43,579.08h-26.12V1064.9a12.46,12.46,0,0,1-12.47,12.47H1029.9a12.46,12.46,0,0,1-12.47-12.47v-24.14H413.76v24.14a12.46,12.46,0,0,1-12.47,12.47H233.6a12.46,12.46,0,0,1-12.47-12.47V586.16H195a12.48,12.48,0,0,1-12.47-12.47V507.28A12.48,12.48,0,0,1,195,494.81H222a96.29,96.29,0,0,1,191,0h27a12.48,12.48,0,0,1,12.47,12.47v66.41a12.48,12.48,0,0,1-12.47,12.47H413.76v31.78h50.51v-63.6a12.47,12.47,0,1,1,24.94,0V598a289.66,289.66,0,0,1,54.67-40.86V516.9a12.47,12.47,0,0,1,24.94,0v27.21a321,321,0,0,1,54.69-19.62V492a12.47,12.47,0,1,1,24.94,0V519a369.76,369.76,0,0,1,54.67-5.72V451a12.47,12.47,0,1,1,24.94,0v62.29a372.88,372.88,0,0,1,54.67,5.7V492a12.47,12.47,0,1,1,24.94,0V524.5a321,321,0,0,1,54.69,19.62V516.9a12.47,12.47,0,0,1,24.94,0v40.22A289.67,289.67,0,0,1,942,598V554.34a12.47,12.47,0,1,1,24.94,0v63.6h50.51V586.16H991.31a12.48,12.48,0,0,1-12.47-12.47V507.28a12.48,12.48,0,0,1,12.47-12.47h26.95a96.29,96.29,0,0,1,191,0h27a12.48,12.48,0,0,1,12.47,12.47v66.41A12.46,12.46,0,0,1,1236.18,586.16Z" transform="translate(-7.08 -7.08)"/><rect class="cls-1" x="641.38" y="765.52" width="134.28" height="34.21"/><rect class="cls-1" x="996.7" y="512.7" width="219.93" height="41.44"/><path class="cls-1" d="M728.07,565.72a369.76,369.76,0,0,1,54.67,5.72V544.56a337.2,337.2,0,0,0-54.67-6.3Z" transform="translate(-7.08 -7.08)"/><path class="cls-1" d="M728.07,747.66h54.67V597a337.19,337.19,0,0,0-54.67-6.3Z" transform="translate(-7.08 -7.08)"/><rect class="cls-1" x="800.62" y="978.08" width="54.67" height="30.66"/><path class="cls-1" d="M807.68,960.21h54.69V624.82a297.11,297.11,0,0,0-54.69-21.76Z" transform="translate(-7.08 -7.08)"/><rect class="cls-1" x="880.24" y="978.08" width="54.67" height="30.66"/><path class="cls-1" d="M887.31,639.38V960.21H942V687.13C935.95,679.69,918,659.45,887.31,639.38Z" transform="translate(-7.08 -7.08)"/><path class="cls-1" d="M807.68,576.94a321,321,0,0,1,54.69,19.6V572.4a297.11,297.11,0,0,0-54.69-21.76Z" transform="translate(-7.08 -7.08)"/></svg>