<svg id="Слой_1" data-name="Слой 1" xmlns="http://www.w3.org/2000/svg" viewBox="0 0 1417.35 1417.35"><title>Монтажная область 1</title><path d="M561.74,589.46a321,321,0,0,1,54.69-19.6V543.47a297.13,297.13,0,0,0-54.69,21.69Z"/><rect x="561.76" y="978.08" width="54.67" height="30.66"/><path d="M561.74,953.13h54.69V595.92a295.58,295.58,0,0,0-54.69,21.67Z"/><rect x="641.38" y="978.08" width="54.67" height="30.66"/><rect x="641.38" y="824.69" width="54.67" height="128.45"/><path d="M696,583.6a337.06,337.06,0,0,0-54.67,6.26V740.58H696Z"/><rect x="720.99" y="978.08" width="54.67" height="30.66"/><path d="M482.13,627.58v15.74a289.66,289.66,0,0,1,54.67-40.86V579.7C506,599.81,488.12,620.14,482.13,627.58Z"/><rect x="482.13" y="978.08" width="54.67" height="30.66"/><rect x="406.68" y="978.08" width="50.51" height="30.66"/><rect x="200.4" y="512.68" width="219.91" height="41.44"/><path d="M239,617.47h36.79a12.47,12.47,0,1,1,0,24.94H239V761.66h36.79a12.47,12.47,0,1,1,0,24.94H239V905.92h36.79a12.47,12.47,0,1,1,0,24.94H239v114.53H381.74v-42.47H344.92a12.5,12.5,0,1,1,0-25h36.81V858.71H344.92a12.47,12.47,0,0,1,0-24.94h36.81V714.52H344.92a12.47,12.47,0,1,1,0-24.94h36.81V579.08H239Z"/><path d="M310.36,428.83a71.48,71.48,0,0,0-70.26,58.9H380.62A71.48,71.48,0,0,0,310.36,428.83Z"/><path d="M482.13,680V953.13H536.8v-321C506,652.23,488.12,672.59,482.13,680Z"/><rect x="720.99" y="824.69" width="54.67" height="128.45"/><rect x="406.68" y="688.25" width="50.51" height="264.89"/><rect x="406.68" y="635.8" width="50.51" height="27.48"/><path d="M696,531.18a337.36,337.36,0,0,0-54.67,6.26v26.92A369.76,369.76,0,0,1,696,558.64Z"/><rect x="959.85" y="635.8" width="50.51" height="27.48"/><path d="M880.23,579.92V602.5a290.63,290.63,0,0,1,54.69,40.83V627.6C928.87,620.19,910.92,599.92,880.23,579.92Z"/><rect x="959.85" y="688.25" width="50.51" height="264.89"/><rect x="959.85" y="978.08" width="50.51" height="30.66"/><path d="M1106.67,428.83a71.48,71.48,0,0,0-70.26,58.9h140.51A71.44,71.44,0,0,0,1106.67,428.83Z"/><path d="M1035.29,689.58h36.81a12.47,12.47,0,0,1,0,24.94h-36.81V833.77h36.81a12.47,12.47,0,0,1,0,24.94h-36.81V977.92h36.81a12.5,12.5,0,1,1,0,25h-36.81v42.42H1178V930.82h-36.81a12.47,12.47,0,0,1,0-24.94H1178V786.61h-36.81a12.47,12.47,0,0,1,0-24.94H1178V642.41h-36.81a12.47,12.47,0,0,1,0-24.94H1178V579.08H1035.29Z"/><path d="M708.67,0C317.29,0,0,317.29,0,708.67s317.29,708.67,708.67,708.67S1417.34,1100,1417.34,708.67,1100.05,0,708.67,0ZM1229.1,579.08H1203v478.74a12.46,12.46,0,0,1-12.45,12.47H1022.82a12.46,12.46,0,0,1-12.47-12.45v-24.16H406.68v24.14a12.46,12.46,0,0,1-12.45,12.47H226.52a12.46,12.46,0,0,1-12.47-12.45V579.08H187.92a12.48,12.48,0,0,1-12.47-12.47V500.2a12.48,12.48,0,0,1,12.47-12.47h27a96.29,96.29,0,0,1,191,0h27a12.48,12.48,0,0,1,12.47,12.47v66.41a12.48,12.48,0,0,1-12.47,12.47H406.68v31.78h50.51v-63.6a12.47,12.47,0,1,1,24.94,0v43.66a289.66,289.66,0,0,1,54.67-40.86V509.82a12.47,12.47,0,1,1,24.94,0V537a321,321,0,0,1,54.69-19.62V484.92a12.47,12.47,0,0,1,24.94,0v27A369.76,369.76,0,0,1,696,506.2V443.92a12.47,12.47,0,1,1,24.94,0v62.29a372.88,372.88,0,0,1,54.67,5.7v-27a12.47,12.47,0,0,1,24.94,0v32.5A321,321,0,0,1,855.28,537V509.82a12.47,12.47,0,1,1,24.94,0V550a289.67,289.67,0,0,1,54.7,40.88V547.26a12.47,12.47,0,1,1,24.94,0v63.6h50.51V579.08H984.23a12.48,12.48,0,0,1-12.47-12.47V500.2a12.48,12.48,0,0,1,12.47-12.47h27a96.29,96.29,0,0,1,191,0h27a12.48,12.48,0,0,1,12.47,12.47v66.41a12.46,12.46,0,0,1-12.45,12.47h-.1Z"/><rect x="641.38" y="765.52" width="134.28" height="34.21"/><rect x="996.7" y="512.7" width="219.93" height="41.44"/><path d="M721,558.64a369.76,369.76,0,0,1,54.67,5.72V537.48a337.21,337.21,0,0,0-54.67-6.3Z"/><path d="M721,740.58h54.67V589.92a337.19,337.19,0,0,0-54.67-6.3Z"/><rect x="800.62" y="978.08" width="54.67" height="30.66"/><path d="M800.6,953.13h54.69V617.74A297.11,297.11,0,0,0,800.6,596Z"/><rect x="880.24" y="978.08" width="54.67" height="30.66"/><path d="M880.23,632.3V953.13h54.69V680C928.87,672.61,910.92,652.37,880.23,632.3Z"/><path d="M800.6,569.86a321,321,0,0,1,54.69,19.6V565.32a297.11,297.11,0,0,0-54.69-21.76Z"/></svg>