<svg id="Слой_1" data-name="Слой 1" xmlns="http://www.w3.org/2000/svg" viewBox="0 0 1417.32 1417.32"><defs><style>.cls-1{fill:#fff;}</style></defs><title>окно-ико</title><rect class="cls-1" x="744.73" y="745.13" width="210.55" height="263.44"/><rect class="cls-1" x="744.73" y="405.46" width="210.55" height="263.46"/><rect class="cls-1" x="461.21" y="405.46" width="210.55" height="263.46"/><rect class="cls-1" x="461.21" y="745.13" width="210.55" height="263.44"/><polygon class="cls-1" points="311.75 1110.95 1104.68 1110.99 1104.7 1110.99 1104.75 1072.25 311.8 1072.18 311.75 1110.95"/><path class="cls-1" d="M715.75,7.07C324.38,7.07,7.09,324.35,7.09,715.73s317.29,708.66,708.66,708.66,708.66-317.29,708.66-708.66S1107.13,7.07,715.75,7.07ZM343.6,310.79a23,23,0,0,1,22.94-23h697.59a23,23,0,0,1,23,23v102.9a12.16,12.16,0,1,1-24.32,0V312.14H367.92V877.28a12.16,12.16,0,1,1-24.32,0ZM1136.16,1118a24.42,24.42,0,0,1-24.38,24.38H318.89A24.42,24.42,0,0,1,294.53,1118v-38.7a24.4,24.4,0,0,1,24.36-24.38h24.7V935a12.16,12.16,0,1,1,24.32,0v119.92h29V367.4a26.24,26.24,0,0,1,26.21-26.23h584.36a26.24,26.24,0,0,1,26.21,26.23v687.53h29V471.57a12.16,12.16,0,1,1,24.32,0v583.35h24.7a24.41,24.41,0,0,1,24.38,24.38Z" transform="translate(-7.09 -7.07)"/><path class="cls-1" d="M1009.4,367.4a1.91,1.91,0,0,0-1.89-1.92H423.15a1.93,1.93,0,0,0-1.89,1.92v687.53H1009.4ZM703.17,1016.59A23.38,23.38,0,0,1,679.81,1040H467.35A23.38,23.38,0,0,1,444,1016.59V751.24a23.39,23.39,0,0,1,23.36-23.38H679.81a23.39,23.39,0,0,1,23.36,23.38Zm0-339.65a23.38,23.38,0,0,1-23.36,23.36H467.35A23.38,23.38,0,0,1,444,676.94V411.57a23.38,23.38,0,0,1,23.36-23.36H679.81a23.38,23.38,0,0,1,23.36,23.36Zm283.54,339.65A23.4,23.4,0,0,1,963.33,1040H750.86a23.4,23.4,0,0,1-23.36-23.36V751.24a23.4,23.4,0,0,1,23.36-23.38H963.33a23.41,23.41,0,0,1,23.38,23.38Zm0-339.65a23.4,23.4,0,0,1-23.38,23.36H750.86a23.4,23.4,0,0,1-23.36-23.36V411.57a23.4,23.4,0,0,1,23.36-23.36H963.33a23.4,23.4,0,0,1,23.38,23.36Z" transform="translate(-7.09 -7.07)"/></svg>