<svg id="Слой_1" data-name="Слой 1" xmlns="http://www.w3.org/2000/svg" viewBox="0 0 1417.32 1417.32"><title>Монтажная область 1</title><rect x="744.73" y="745.13" width="210.55" height="263.44"/><rect x="744.73" y="405.46" width="210.55" height="263.46"/><rect x="461.21" y="405.46" width="210.55" height="263.46"/><rect x="461.21" y="745.13" width="210.55" height="263.44"/><polygon points="311.75 1110.95 1104.68 1110.99 1104.7 1110.99 1104.75 1072.25 311.8 1072.18 311.75 1110.95"/><path d="M708.66,0C317.29,0,0,317.28,0,708.66s317.29,708.66,708.66,708.66S1417.32,1100,1417.32,708.66,1100,0,708.66,0ZM336.51,303.72a23,23,0,0,1,22.94-23H1057a23,23,0,0,1,23,23v102.9a12.16,12.16,0,0,1-24.32.05V305.07H360.83V870.21a12.16,12.16,0,1,1-24.32,0h0Zm792.56,807.21a24.42,24.42,0,0,1-24.38,24.38H311.8a24.42,24.42,0,0,1-24.36-24.38v-38.7a24.4,24.4,0,0,1,24.36-24.38h24.7V927.93a12.16,12.16,0,1,1,24.32,0v119.92h29V360.33A26.24,26.24,0,0,1,416,334.1h584.36a26.24,26.24,0,0,1,26.21,26.23v687.53h29V464.5a12.16,12.16,0,0,1,24.32-.05v583.4h24.7a24.41,24.41,0,0,1,24.38,24.38Z"/><path d="M1002.31,360.33a1.91,1.91,0,0,0-1.89-1.92H416.06a1.93,1.93,0,0,0-1.89,1.92v687.53h588.14ZM696.08,1009.52a23.38,23.38,0,0,1-23.35,23.41H460.26a23.38,23.38,0,0,1-23.35-23.41h0V744.17a23.39,23.39,0,0,1,23.36-23.38H672.72a23.39,23.39,0,0,1,23.36,23.38Zm0-339.65a23.38,23.38,0,0,1-23.36,23.36H460.26a23.38,23.38,0,0,1-23.35-23.36V404.5a23.38,23.38,0,0,1,23.36-23.36H672.72a23.38,23.38,0,0,1,23.36,23.36Zm283.54,339.65a23.4,23.4,0,0,1-23.38,23.41H743.77a23.4,23.4,0,0,1-23.36-23.36V744.17a23.4,23.4,0,0,1,23.36-23.38H956.24a23.41,23.41,0,0,1,23.38,23.38Zm0-339.65a23.4,23.4,0,0,1-23.38,23.36H743.77a23.4,23.4,0,0,1-23.36-23.36V404.5a23.4,23.4,0,0,1,23.36-23.36H956.24a23.4,23.4,0,0,1,23.38,23.36Z"/></svg>