<svg data-name="Слой 1" xmlns="http://www.w3.org/2000/svg" viewBox="0 0 1417.32 1417.32"><title>Монтажная область 1</title><path d="M905.85 299.48H510.51v810.32h395.34zM888 767.33a14.27 14.27 0 0 1-28.55 0V714.6a14.27 14.27 0 0 1 28.55 0zm0-217.22a25.47 25.47 0 0 1-25.43 25.43H558.91a25.45 25.45 0 0 1-25.43-25.43V385.59a25.45 25.45 0 0 1 25.43-25.43h303.68A25.48 25.48 0 0 1 888 385.59zm-514.35 588.27h669.09v28.28H373.65z"/><path d="M562.05 388.71h297.42V547H562.05z"/><path d="M708.66 0C317.28 0 0 317.28 0 708.66s317.29 708.66 708.66 708.66 708.66-317.32 708.66-708.66S1100 0 708.66 0zm-285.5 246.12a25.45 25.45 0 0 1 25.43-25.43h519.18a25.45 25.45 0 0 1 25.43 25.43v492.61a14.27 14.27 0 0 1-28.55 0V249.24H451.71v489.29a14.27 14.27 0 1 1-28.55 0zm648.12 924.52a24.6 24.6 0 0 1-24.56 24.58H369.66a24.59 24.59 0 0 1-24.56-24.58v-36.25a24.58 24.58 0 0 1 24.56-24.56h53.51V796.06a14.27 14.27 0 1 1 28.55 0v313.77h30.19V296.36a25.45 25.45 0 0 1 25.45-25.45H909a25.45 25.45 0 0 1 25.43 25.43v813.46h30.26V796.21a14.27 14.27 0 0 1 28.55 0v313.61h53.51a24.6 24.6 0 0 1 24.56 24.56z"/></svg>