<svg id="Слой_1" data-name="Слой 1" xmlns="http://www.w3.org/2000/svg" viewBox="0 0 1417.32 1417.32"><defs><style>.cls-1{fill:#fff}</style></defs><title>mail-icon-dunco</title><path class="cls-1" d="M1131.7 487.64a62.13 62.13 0 0 0-62.15-62h-706a62.11 62.11 0 0 0-62 62v482.54a62.11 62.11 0 0 0 62 62h706.29a62.11 62.11 0 0 0 62-62h-.12zm-62.53 490a26.11 26.11 0 0 1-36.83 1.08L799.83 757.85l-65.15 58.43a26.05 26.05 0 0 1-34.79.12l-63.47-56.63-233.83 218.71a26 26 0 0 1-17.76 7 27 27 0 0 1-19.2-8.28 26.26 26.26 0 0 1 1.2-37l230.36-215.71-231.31-206.71a26.13 26.13 0 1 1 34.79-39l250.27 223.88a42.18 42.18 0 0 1 4.2 3.72c0 .24.24.36.48.6L717 761.93l315.29-283a26.12 26.12 0 0 1 34.91 38.87l-228.55 205 229.51 218a26 26 0 0 1 1.01 36.84z" transform="translate(-7.09 -7.07)"/><path class="cls-1" d="M715.75 7.07C324.38 7.07 7.09 324.35 7.09 715.73s317.29 708.66 708.66 708.66 708.66-317.29 708.66-708.66S1107.13 7.07 715.75 7.07zm468.13 963.11a114.46 114.46 0 0 1-114.34 114.34h-706c-63 0-114.22-51.35-114.22-114.34V487.52A114.36 114.36 0 0 1 363.5 373.19h706.29c63 0 114.33 51.47 114.1 114.46z" transform="translate(-7.09 -7.07)"/></svg>