<svg data-name="Слой 1" xmlns="http://www.w3.org/2000/svg" viewBox="0 0 1417.32 1417.32"><title>mail-icon-dunco</title><path d="M1124.61 480.57a62.13 62.13 0 0 0-62.15-62h-706a62.11 62.11 0 0 0-62 62v482.54a62.11 62.11 0 0 0 62 62h706.29a62.11 62.11 0 0 0 62-62h-.12zm-62.53 490a26.11 26.11 0 0 1-36.83 1.08L792.74 750.78l-65.15 58.43a26.05 26.05 0 0 1-34.79.12l-63.47-56.63L395.5 971.41a26 26 0 0 1-17.76 7 27 27 0 0 1-19.2-8.28 26.26 26.26 0 0 1 1.2-37L590.1 717.42 358.79 510.71a26.131 26.131 0 1 1 34.79-39l250.27 223.88a42.18 42.18 0 0 1 4.2 3.72c0 .24.24.36.48.6l61.38 54.95 315.29-283a26.123 26.123 0 0 1 34.91 38.87l-228.55 205 229.51 218a26 26 0 0 1 1.01 36.84z"/><path d="M708.66 0C317.29 0 0 317.28 0 708.66s317.29 708.66 708.66 708.66 708.66-317.29 708.66-708.66S1100.04 0 708.66 0zm468.13 963.11a114.46 114.46 0 0 1-114.34 114.34h-706c-63 0-114.22-51.35-114.22-114.34V480.45a114.36 114.36 0 0 1 114.18-114.33h706.29c63 0 114.33 51.47 114.1 114.46z"/></svg>