<svg data-name="Слой 1" xmlns="http://www.w3.org/2000/svg" viewBox="0 0 1417.35 1417.35"><title>Монтажная область 1</title><path d="M958.43 679.24h41.53v52.89h-41.53zm-36.62 187.37h4.83a7.67 7.67 0 0 0 7.66-7.66V371.19h-20.15v487.73a7.67 7.67 0 0 0 7.65 7.69zM416.53 371.19h473.49v52.89H416.53z"/><path d="M738 756.24v267.92h224.92V756.24h-4.52v102.68a31.83 31.83 0 0 1-31.8 31.78h-4.83A31.81 31.81 0 0 1 890 858.92V756.24zm220.45-154.01h41.53v52.89h-41.53zm0-154.03h41.53v52.89h-41.53zm0-77.01h41.53v52.89h-41.53zm0 154.04h41.53v52.89h-41.53zm-541.92 77h473.49v52.89H416.53zm0-154.03h473.49v52.89H416.53z"/><path d="M708.67 0C317.29 0 0 317.29 0 708.67s317.29 708.67 708.67 708.67 708.67-317.34 708.67-708.67S1100.05 0 708.67 0zM339.49 316.45a22.32 22.32 0 0 1 22.31-22.31h692.91a22.32 22.32 0 0 1 22.29 22.31v82.77a12.06 12.06 0 1 1-24.12 0v-81H363.6v551.19a12.06 12.06 0 0 1-24.12 0zm786.2 804a21.37 21.37 0 0 1-21.36 21.36H312.17a21.39 21.39 0 0 1-21.38-21.36v-44a21.39 21.39 0 0 1 21.38-21.36h27.32v-128a12.06 12.06 0 0 1 24.12 0v128h28.79V368.58A21.57 21.57 0 0 1 413.92 347h588.6a21.56 21.56 0 0 1 21.53 21.53v686.51h28.87V457.21a12.07 12.07 0 0 1 24.14 0v597.88h27.3a21.37 21.37 0 0 1 21.36 21.36z"/><path d="M1000 756.24h-12.89v269.68a22.38 22.38 0 0 1-22.36 22.34H736.22a22.38 22.38 0 0 1-22.36-22.34V756.24h-11.24v269.68a22.36 22.36 0 0 1-22.34 22.34H451.75a22.36 22.36 0 0 1-22.33-22.34V756.24h-12.89v298.85H1000zm-685.06 322.98h786.64v38.5H314.94zm101.59-553.99h473.49v52.89H416.53zm0 154.01h473.49v52.89H416.53z"/><path d="M453.54 756.27H678.5v267.9H453.54z"/></svg>