<svg data-name="Слой 1" xmlns="http://www.w3.org/2000/svg" viewBox="0 0 1417.35 1417.35"><title>Монтажная область 1</title><path d="M530.64 994.61h376.22v46.25H530.64zm0 74.24h376.22v46.25H530.64zM371.13 338.2h152.25v29.02H371.13zm30.64 163.7l95.92-83.46v-23.25h-95.92V501.9zm128.87 418.49h376.22v46.25H530.64zm406.48-220.71H500.36v44.24h436.76v-44.24z"/><path d="M708.67 0C317.29 0 0 317.29 0 708.67s317.29 708.67 708.67 708.67 708.67-317.34 708.67-708.67S1100.05 0 708.67 0zm500.49 671.44a21.44 21.44 0 0 1-20.24 14h-94.51v422.29a35.38 35.38 0 0 1-35.34 35.32H378.38a35.34 35.34 0 0 1-35.3-35.32v-107.2a14 14 0 1 1 28 0v107.2a7.36 7.36 0 0 0 7.35 7.35h124.22V771.92h-13.28a17 17 0 0 1-17-17v-66.25a17 17 0 0 1 17-17h458.75a17 17 0 0 1 17 17v66.25a17 17 0 0 1-17 17h-13.29v343.19h124.24a7.36 7.36 0 0 0 7.35-7.35V677.92l-86.7-75.5-261-227.12-261 227.12-86.66 75.5v256.4a14 14 0 0 1-28 0V685.46h-94.5a21.6 21.6 0 0 1-14.19-37.88L373.8 526.24V395.18h-8.75a21.92 21.92 0 0 1-21.89-21.89v-41.17a21.92 21.92 0 0 1 21.89-21.91h164.41a21.93 21.93 0 0 1 21.91 21.91v39.59L704.65 238.3a21.54 21.54 0 0 1 28.17 0l217.5 189.29a14 14 0 1 1-18.4 21.11L718.75 263.15 520.86 435.36 397 543.19 265.61 657.47h86.25l352.79-307a21.59 21.59 0 0 1 28.17 0l352.79 307h86.25l-189.8-165.15a14 14 0 0 1 18.37-21.11l202.67 176.37a21.43 21.43 0 0 1 6.06 23.85z"/><path d="M530.64 846.14h376.22v46.25H530.64zm0-74.22h376.22v46.25H530.64z"/></svg>