<svg id="Слой_1" data-name="Слой 1" xmlns="http://www.w3.org/2000/svg" viewBox="0 0 1417.35 1417.35"><defs><style>.cls-1{fill:#fff}</style></defs><title>окно ролет-ико</title><path class="cls-1" d="M958.43 679.24h41.53v52.89h-41.53z"/><path class="cls-1" d="M928.89 873.69h4.83a7.67 7.67 0 0 0 7.66-7.66V378.27h-20.15V866a7.67 7.67 0 0 0 7.66 7.69z" transform="translate(-7.08 -7.08)"/><path class="cls-1" d="M416.53 371.19h473.49v52.89H416.53z"/><path class="cls-1" d="M745.08 763.32v267.92H970V763.32h-4.52V866a31.83 31.83 0 0 1-31.8 31.78h-4.83A31.81 31.81 0 0 1 897.12 866V763.32z" transform="translate(-7.08 -7.08)"/><path class="cls-1" d="M958.45 602.23h41.53v52.89h-41.53zm0-154.03h41.53v52.89h-41.53zm0-77.01h41.53v52.89h-41.53zm0 154.04h41.53v52.89h-41.53zm-541.92 77h473.49v52.89H416.53zm0-154.03h473.49v52.89H416.53z"/><path class="cls-1" d="M715.75 7.08C324.37 7.08 7.08 324.37 7.08 715.75s317.29 708.67 708.67 708.67 708.67-317.29 708.67-708.67S1107.13 7.08 715.75 7.08zM346.57 323.53a22.32 22.32 0 0 1 22.31-22.31h692.91a22.32 22.32 0 0 1 22.31 22.31v82.77a12.06 12.06 0 1 1-24.12 0v-80.95h-689.3v551.14a12.06 12.06 0 0 1-24.12 0zm786.2 804.05a21.37 21.37 0 0 1-21.36 21.36H319.25a21.39 21.39 0 0 1-21.38-21.36v-44a21.39 21.39 0 0 1 21.38-21.36h27.32v-128a12.06 12.06 0 1 1 24.12 0v128h28.79V375.66A21.57 21.57 0 0 1 421 354.13h588.6a21.56 21.56 0 0 1 21.53 21.53v686.51H1060V464.29a12.07 12.07 0 1 1 24.14 0v597.88h27.3a21.37 21.37 0 0 1 21.36 21.36z" transform="translate(-7.08 -7.08)"/><path class="cls-1" d="M1007.06 763.32h-12.87V1033a22.38 22.38 0 0 1-22.36 22.34H743.3a22.38 22.38 0 0 1-22.36-22.34V763.32H709.7V1033a22.36 22.36 0 0 1-22.34 22.34H458.83A22.36 22.36 0 0 1 436.5 1033V763.32h-12.89v298.85h583.45z" transform="translate(-7.08 -7.08)"/><path class="cls-1" d="M314.94 1079.22h786.64v38.5H314.94zm101.59-553.99h473.49v52.89H416.53zm0 154.01h473.49v52.89H416.53zm37.01 77.03H678.5v267.9H453.54z"/></svg>