<svg id="Слой_1" data-name="Слой 1" xmlns="http://www.w3.org/2000/svg" viewBox="0 0 1417.32 1417.32"><defs><style>.cls-1{fill:#fff}</style></defs><title>www-icon-dunco</title><path class="cls-1" d="M297.31 894.59a63.66 63.66 0 0 0 63.51 63.63h711.51a63.74 63.74 0 0 0 63.51-63.63v-21.17H297.31zm775.26-514.77H360.82a63.56 63.56 0 0 0-63.51 63.51V820.5h838.77V443.33a63.71 63.71 0 0 0-63.51-63.51z" transform="translate(-7.09 -7.07)"/><path class="cls-1" d="M715.75 7.07C324.38 7.07 7.09 324.35 7.09 715.73s317.29 708.66 708.66 708.66 708.66-317.29 708.66-708.66S1107.13 7.07 715.75 7.07zm473 887.53c0 64.36-52.32 116.56-116.43 116.56H743.1v111.2h164.13a26.46 26.46 0 0 1 0 52.92H525.92a26.46 26.46 0 0 1 0-52.92h164.13v-111.2H360.82c-64.36 0-116.43-52.44-116.43-116.56V443.33A116.6 116.6 0 0 1 360.82 326.9h711.51a116.44 116.44 0 0 1 116.43 116.44z" transform="translate(-7.09 -7.07)"/></svg>