<svg data-name="Слой 1" xmlns="http://www.w3.org/2000/svg" viewBox="0 0 1417.32 1417.32"><title>www-icon-dunco</title><path d="M290.22 887.52a63.66 63.66 0 0 0 63.51 63.63h711.51a63.74 63.74 0 0 0 63.51-63.63v-21.17H290.22zm775.26-514.77H353.73a63.56 63.56 0 0 0-63.51 63.51v377.17h838.77V436.26a63.71 63.71 0 0 0-63.51-63.51z"/><path d="M708.66 0C317.29 0 0 317.28 0 708.66s317.29 708.66 708.66 708.66 708.66-317.29 708.66-708.66S1100.04 0 708.66 0zm473 887.53c0 64.36-52.32 116.56-116.43 116.56H736.01v111.2h164.13a26.46 26.46 0 0 1 0 52.92H518.83a26.46 26.46 0 0 1 0-52.92h164.13v-111.2H353.73c-64.36 0-116.43-52.44-116.43-116.56V436.26a116.6 116.6 0 0 1 116.43-116.43h711.51a116.44 116.44 0 0 1 116.43 116.44z"/></svg>