<svg data-name="Слой 1" xmlns="http://www.w3.org/2000/svg" viewBox="0 0 1417.35 1417.35"><title>Монтажная область 1</title><path d="M561.74 589.46a321 321 0 0 1 54.69-19.6v-26.39a297.13 297.13 0 0 0-54.69 21.69zm.02 388.62h54.67v30.66h-54.67zm-.02-24.95h54.69V595.92a295.58 295.58 0 0 0-54.69 21.67zm79.64 24.95h54.67v30.66h-54.67zm0-153.39h54.67v128.45h-54.67zM696 583.6a337.06 337.06 0 0 0-54.67 6.26v150.72H696zm24.99 394.48h54.67v30.66h-54.67zm-238.86-350.5v15.74a289.66 289.66 0 0 1 54.67-40.86V579.7c-30.8 20.11-48.68 40.44-54.67 47.88zm0 350.5h54.67v30.66h-54.67zm-75.45 0h50.51v30.66h-50.51zM200.4 512.68h219.91v41.44H200.4zM239 617.47h36.79a12.47 12.47 0 1 1 0 24.94H239v119.25h36.79a12.47 12.47 0 1 1 0 24.94H239v119.32h36.79a12.47 12.47 0 1 1 0 24.94H239v114.53h142.74v-42.47h-36.82a12.5 12.5 0 1 1 0-25h36.81V858.71h-36.81a12.47 12.47 0 0 1 0-24.94h36.81V714.52h-36.81a12.47 12.47 0 1 1 0-24.94h36.81v-110.5H239zm71.36-188.64a71.48 71.48 0 0 0-70.26 58.9h140.52a71.48 71.48 0 0 0-70.26-58.9zM482.13 680v273.13h54.67v-321c-30.8 20.1-48.68 40.46-54.67 47.87zm238.86 144.69h54.67v128.45h-54.67zM406.68 688.25h50.51v264.89h-50.51zm0-52.45h50.51v27.48h-50.51zM696 531.18a337.36 337.36 0 0 0-54.67 6.26v26.92a369.76 369.76 0 0 1 54.67-5.72zM959.85 635.8h50.51v27.48h-50.51zm-79.62-55.88v22.58a290.63 290.63 0 0 1 54.69 40.83V627.6c-6.05-7.41-24-27.68-54.69-47.68zm79.62 108.33h50.51v264.89h-50.51zm0 289.83h50.51v30.66h-50.51zm146.82-549.25a71.48 71.48 0 0 0-70.26 58.9h140.51a71.44 71.44 0 0 0-70.25-58.9zm-71.38 260.75h36.81a12.47 12.47 0 0 1 0 24.94h-36.81v119.25h36.81a12.47 12.47 0 0 1 0 24.94h-36.81v119.21h36.81a12.5 12.5 0 1 1 0 25h-36.81v42.42H1178V930.82h-36.81a12.47 12.47 0 0 1 0-24.94H1178V786.61h-36.81a12.47 12.47 0 0 1 0-24.94H1178V642.41h-36.81a12.47 12.47 0 0 1 0-24.94H1178v-38.39h-142.71z"/><path d="M708.67 0C317.29 0 0 317.29 0 708.67s317.29 708.67 708.67 708.67 708.67-317.34 708.67-708.67S1100.05 0 708.67 0zm520.43 579.08H1203v478.74a12.46 12.46 0 0 1-12.45 12.47h-167.73a12.46 12.46 0 0 1-12.47-12.45v-24.16H406.68v24.14a12.46 12.46 0 0 1-12.45 12.47H226.52a12.46 12.46 0 0 1-12.47-12.45V579.08h-26.13a12.48 12.48 0 0 1-12.47-12.47V500.2a12.48 12.48 0 0 1 12.47-12.47h27a96.29 96.29 0 0 1 191 0h27a12.48 12.48 0 0 1 12.47 12.47v66.41a12.48 12.48 0 0 1-12.47 12.47h-26.24v31.78h50.51v-63.6a12.47 12.47 0 1 1 24.94 0v43.66a289.66 289.66 0 0 1 54.67-40.86v-40.24a12.47 12.47 0 1 1 24.94 0V537a321 321 0 0 1 54.69-19.62v-32.46a12.47 12.47 0 0 1 24.94 0v27A369.76 369.76 0 0 1 696 506.2v-62.28a12.47 12.47 0 1 1 24.94 0v62.29a372.88 372.88 0 0 1 54.67 5.7v-27a12.47 12.47 0 0 1 24.94 0v32.5A321 321 0 0 1 855.28 537v-27.18a12.47 12.47 0 1 1 24.94 0V550a289.67 289.67 0 0 1 54.7 40.88v-43.62a12.47 12.47 0 1 1 24.94 0v63.6h50.51v-31.78h-26.14a12.48 12.48 0 0 1-12.47-12.47V500.2a12.48 12.48 0 0 1 12.47-12.47h27a96.29 96.29 0 0 1 191 0h27a12.48 12.48 0 0 1 12.47 12.47v66.41a12.46 12.46 0 0 1-12.45 12.47h-.1z"/><path d="M641.38 765.52h134.28v34.21H641.38zM996.7 512.7h219.93v41.44H996.7zM721 558.64a369.76 369.76 0 0 1 54.67 5.72v-26.88a337.21 337.21 0 0 0-54.67-6.3zm0 181.94h54.67V589.92a337.19 337.19 0 0 0-54.67-6.3zm79.62 237.5h54.67v30.66h-54.67zm-.02-24.95h54.69V617.74A297.11 297.11 0 0 0 800.6 596zm79.64 24.95h54.67v30.66h-54.67zm-.01-345.78v320.83h54.69V680c-6.05-7.39-24-27.63-54.69-47.7zm-79.63-62.44a321 321 0 0 1 54.69 19.6v-24.14a297.11 297.11 0 0 0-54.69-21.76z"/></svg>