<svg id="Слой_1" data-name="Слой 1" xmlns="http://www.w3.org/2000/svg" viewBox="0 0 1417.35 1417.35"><defs><style>.cls-1{fill:#fff}</style></defs><title>ворота-ико</title><path class="cls-1" d="M568.82 596.54a321 321 0 0 1 54.69-19.6v-26.39a297.13 297.13 0 0 0-54.69 21.69z" transform="translate(-7.08 -7.08)"/><path class="cls-1" d="M561.76 978.08h54.67v30.66h-54.67z"/><path class="cls-1" d="M568.82 960.21h54.69V603a295.58 295.58 0 0 0-54.69 21.67z" transform="translate(-7.08 -7.08)"/><path class="cls-1" d="M641.38 978.08h54.67v30.66h-54.67zm0-153.39h54.67v128.45h-54.67z"/><path class="cls-1" d="M703.12 590.68a337.06 337.06 0 0 0-54.67 6.26v150.72h54.67z" transform="translate(-7.08 -7.08)"/><path class="cls-1" d="M720.99 978.08h54.67v30.66h-54.67z"/><path class="cls-1" d="M489.21 634.66v15.74a289.66 289.66 0 0 1 54.67-40.86v-22.76c-30.76 20.11-48.68 40.44-54.67 47.88z" transform="translate(-7.08 -7.08)"/><path class="cls-1" d="M482.13 978.08h54.67v30.66h-54.67zm-75.45 0h50.51v30.66h-50.51zM200.4 512.68h219.91v41.44H200.4z"/><path class="cls-1" d="M246.07 624.55h36.79a12.47 12.47 0 0 1 0 24.94h-36.79v119.25h36.79a12.47 12.47 0 0 1 0 24.94h-36.79V913h36.79a12.47 12.47 0 0 1 0 24.94h-36.79v114.53h142.75V1010H352a12.48 12.48 0 0 1 0-25h36.81V865.79H352a12.47 12.47 0 1 1 0-24.94h36.81V721.6H352a12.47 12.47 0 1 1 0-24.94h36.81v-110.5H246.07zm71.37-188.64a71.48 71.48 0 0 0-70.26 58.9H387.7a71.48 71.48 0 0 0-70.26-58.9zm171.77 251.17v273.13h54.67v-321c-30.76 20.1-48.68 40.46-54.67 47.87z" transform="translate(-7.08 -7.08)"/><path class="cls-1" d="M720.99 824.69h54.67v128.45h-54.67zM406.68 688.25h50.51v264.89h-50.51zm0-52.45h50.51v27.48h-50.51z"/><path class="cls-1" d="M703.12 538.26a337.36 337.36 0 0 0-54.67 6.26v26.92a369.76 369.76 0 0 1 54.67-5.72z" transform="translate(-7.08 -7.08)"/><path class="cls-1" d="M959.85 635.8h50.51v27.48h-50.51z"/><path class="cls-1" d="M887.31 587v22.58A290.63 290.63 0 0 1 942 650.41v-15.73c-6.05-7.41-24-27.68-54.69-47.68z" transform="translate(-7.08 -7.08)"/><path class="cls-1" d="M959.85 688.25h50.51v264.89h-50.51zm0 289.83h50.51v30.66h-50.51z"/><path class="cls-1" d="M1113.75 435.91a71.48 71.48 0 0 0-70.26 58.9H1184a71.44 71.44 0 0 0-70.25-58.9zm-71.38 260.75h36.81a12.47 12.47 0 1 1 0 24.94h-36.81v119.25h36.81a12.47 12.47 0 1 1 0 24.94h-36.81V985h36.81a12.48 12.48 0 0 1 0 25h-36.81v42.42h142.75V937.9h-36.81a12.47 12.47 0 0 1 0-24.94h36.81V793.69h-36.81a12.47 12.47 0 0 1 0-24.94h36.81V649.49h-36.81a12.47 12.47 0 0 1 0-24.94h36.81v-38.39h-142.75z" transform="translate(-7.08 -7.08)"/><path class="cls-1" d="M715.75 7.08C324.37 7.08 7.08 324.37 7.08 715.75s317.29 708.67 708.67 708.67 708.67-317.29 708.67-708.67S1107.13 7.08 715.75 7.08zm520.43 579.08h-26.12v478.74a12.46 12.46 0 0 1-12.47 12.47H1029.9a12.46 12.46 0 0 1-12.47-12.47v-24.14H413.76v24.14a12.46 12.46 0 0 1-12.47 12.47H233.6a12.46 12.46 0 0 1-12.47-12.47V586.16H195a12.48 12.48 0 0 1-12.47-12.47v-66.41A12.48 12.48 0 0 1 195 494.81h27a96.29 96.29 0 0 1 191 0h27a12.48 12.48 0 0 1 12.47 12.47v66.41A12.48 12.48 0 0 1 440 586.16h-26.24v31.78h50.51v-63.6a12.47 12.47 0 1 1 24.94 0V598a289.66 289.66 0 0 1 54.67-40.86V516.9a12.47 12.47 0 0 1 24.94 0v27.21a321 321 0 0 1 54.69-19.62V492a12.47 12.47 0 1 1 24.94 0v27a369.76 369.76 0 0 1 54.67-5.72V451a12.47 12.47 0 1 1 24.94 0v62.29a372.88 372.88 0 0 1 54.67 5.7V492a12.47 12.47 0 1 1 24.94 0v32.5a321 321 0 0 1 54.69 19.62V516.9a12.47 12.47 0 0 1 24.94 0v40.22A289.67 289.67 0 0 1 942 598v-43.66a12.47 12.47 0 1 1 24.94 0v63.6h50.51v-31.78h-26.14a12.48 12.48 0 0 1-12.47-12.47v-66.41a12.48 12.48 0 0 1 12.47-12.47h26.95a96.29 96.29 0 0 1 191 0h27a12.48 12.48 0 0 1 12.47 12.47v66.41a12.46 12.46 0 0 1-12.55 12.47z" transform="translate(-7.08 -7.08)"/><path class="cls-1" d="M641.38 765.52h134.28v34.21H641.38zM996.7 512.7h219.93v41.44H996.7z"/><path class="cls-1" d="M728.07 565.72a369.76 369.76 0 0 1 54.67 5.72v-26.88a337.2 337.2 0 0 0-54.67-6.3zm0 181.94h54.67V597a337.19 337.19 0 0 0-54.67-6.3z" transform="translate(-7.08 -7.08)"/><path class="cls-1" d="M800.62 978.08h54.67v30.66h-54.67z"/><path class="cls-1" d="M807.68 960.21h54.69V624.82a297.11 297.11 0 0 0-54.69-21.76z" transform="translate(-7.08 -7.08)"/><path class="cls-1" d="M880.24 978.08h54.67v30.66h-54.67z"/><path class="cls-1" d="M887.31 639.38v320.83H942V687.13c-6.05-7.44-24-27.68-54.69-47.75zm-79.63-62.44a321 321 0 0 1 54.69 19.6V572.4a297.11 297.11 0 0 0-54.69-21.76z" transform="translate(-7.08 -7.08)"/></svg>