<svg data-name="Слой 1" xmlns="http://www.w3.org/2000/svg" viewBox="0 0 1417.32 1417.32"><title>Монтажная область 1</title><path d="M744.73 745.13h210.55v263.44H744.73zm0-339.67h210.55v263.46H744.73zm-283.52 0h210.55v263.46H461.21zm0 339.67h210.55v263.44H461.21zm-149.46 365.82l792.93.04h.02l.05-38.74-792.95-.07-.05 38.77z"/><path d="M708.66 0C317.29 0 0 317.28 0 708.66s317.29 708.66 708.66 708.66 708.66-317.32 708.66-708.66S1100 0 708.66 0zM336.51 303.72a23 23 0 0 1 22.94-23H1057a23 23 0 0 1 23 23v102.9a12.16 12.16 0 0 1-24.32.05v-101.6H360.83v565.14a12.16 12.16 0 1 1-24.32 0zm792.56 807.21a24.42 24.42 0 0 1-24.38 24.38H311.8a24.42 24.42 0 0 1-24.36-24.38v-38.7a24.4 24.4 0 0 1 24.36-24.38h24.7V927.93a12.16 12.16 0 1 1 24.32 0v119.92h29V360.33A26.24 26.24 0 0 1 416 334.1h584.36a26.24 26.24 0 0 1 26.21 26.23v687.53h29V464.5a12.16 12.16 0 0 1 24.32-.05v583.4h24.7a24.41 24.41 0 0 1 24.38 24.38z"/><path d="M1002.31 360.33a1.91 1.91 0 0 0-1.89-1.92H416.06a1.93 1.93 0 0 0-1.89 1.92v687.53h588.14zm-306.23 649.19a23.38 23.38 0 0 1-23.35 23.41H460.26a23.38 23.38 0 0 1-23.35-23.41V744.17a23.39 23.39 0 0 1 23.36-23.38h212.45a23.39 23.39 0 0 1 23.36 23.38zm0-339.65a23.38 23.38 0 0 1-23.36 23.36H460.26a23.38 23.38 0 0 1-23.35-23.36V404.5a23.38 23.38 0 0 1 23.36-23.36h212.45a23.38 23.38 0 0 1 23.36 23.36zm283.54 339.65a23.4 23.4 0 0 1-23.38 23.41H743.77a23.4 23.4 0 0 1-23.36-23.36v-265.4a23.4 23.4 0 0 1 23.36-23.38h212.47a23.41 23.41 0 0 1 23.38 23.38zm0-339.65a23.4 23.4 0 0 1-23.38 23.36H743.77a23.4 23.4 0 0 1-23.36-23.36V404.5a23.4 23.4 0 0 1 23.36-23.36h212.47a23.4 23.4 0 0 1 23.38 23.36z"/></svg>