<svg id="Слой_1" data-name="Слой 1" xmlns="http://www.w3.org/2000/svg" viewBox="0 0 1417.32 1417.32"><defs><style>.cls-1{fill:#fff}</style></defs><title>окно-ико</title><path class="cls-1" d="M744.73 745.13h210.55v263.44H744.73zm0-339.67h210.55v263.46H744.73zm-283.52 0h210.55v263.46H461.21zm0 339.67h210.55v263.44H461.21zm-149.46 365.82l792.93.04h.02l.05-38.74-792.95-.07-.05 38.77z"/><path class="cls-1" d="M715.75 7.07C324.38 7.07 7.09 324.35 7.09 715.73s317.29 708.66 708.66 708.66 708.66-317.29 708.66-708.66S1107.13 7.07 715.75 7.07zM343.6 310.79a23 23 0 0 1 22.94-23h697.59a23 23 0 0 1 23 23v102.9a12.16 12.16 0 1 1-24.32 0V312.14H367.92v565.14a12.16 12.16 0 1 1-24.32 0zM1136.16 1118a24.42 24.42 0 0 1-24.38 24.38H318.89a24.42 24.42 0 0 1-24.36-24.38v-38.7a24.4 24.4 0 0 1 24.36-24.38h24.7V935a12.16 12.16 0 1 1 24.32 0v119.92h29V367.4a26.24 26.24 0 0 1 26.21-26.23h584.36a26.24 26.24 0 0 1 26.21 26.23v687.53h29V471.57a12.16 12.16 0 1 1 24.32 0v583.35h24.7a24.41 24.41 0 0 1 24.38 24.38z" transform="translate(-7.09 -7.07)"/><path class="cls-1" d="M1009.4 367.4a1.91 1.91 0 0 0-1.89-1.92H423.15a1.93 1.93 0 0 0-1.89 1.92v687.53h588.14zm-306.23 649.19a23.38 23.38 0 0 1-23.36 23.41H467.35a23.38 23.38 0 0 1-23.35-23.41V751.24a23.39 23.39 0 0 1 23.36-23.38h212.45a23.39 23.39 0 0 1 23.36 23.38zm0-339.65a23.38 23.38 0 0 1-23.36 23.36H467.35A23.38 23.38 0 0 1 444 676.94V411.57a23.38 23.38 0 0 1 23.36-23.36h212.45a23.38 23.38 0 0 1 23.36 23.36zm283.54 339.65a23.4 23.4 0 0 1-23.38 23.41H750.86a23.4 23.4 0 0 1-23.36-23.36v-265.4a23.4 23.4 0 0 1 23.36-23.38h212.47a23.41 23.41 0 0 1 23.38 23.38zm0-339.65a23.4 23.4 0 0 1-23.38 23.36H750.86a23.4 23.4 0 0 1-23.36-23.36V411.57a23.4 23.4 0 0 1 23.36-23.36h212.47a23.4 23.4 0 0 1 23.38 23.36z" transform="translate(-7.09 -7.07)"/></svg>