<svg xmlns="http://www.w3.org/2000/svg" xmlns:xlink="http://www.w3.org/1999/xlink" width="1000" height="16000" viewBox="0 0 1000 16000"><svg data-name="Слой 1" viewBox="0 0 1417.32 1417.32" width="1000" height="1000" id="door-icon-dunco-black" y="0"><title>Монтажная область 1</title><path d="M905.85 299.48H510.51v810.32h395.34zM888 767.33a14.27 14.27 0 0 1-28.55 0V714.6a14.27 14.27 0 0 1 28.55 0zm0-217.22a25.47 25.47 0 0 1-25.43 25.43H558.91a25.45 25.45 0 0 1-25.43-25.43V385.59a25.45 25.45 0 0 1 25.43-25.43h303.68A25.48 25.48 0 0 1 888 385.59zM373.65 1138.38h669.09v28.28H373.65z"></path><path d="M562.05 388.71h297.42V547H562.05z"></path><path d="M708.66 0C317.28 0 0 317.28 0 708.66s317.29 708.66 708.66 708.66 708.66-317.32 708.66-708.66S1100 0 708.66 0zm-285.5 246.12a25.45 25.45 0 0 1 25.43-25.43h519.18a25.45 25.45 0 0 1 25.43 25.43v492.61a14.27 14.27 0 0 1-28.55 0V249.24H451.71v489.29a14.27 14.27 0 1 1-28.55 0zm648.12 924.52a24.6 24.6 0 0 1-24.56 24.58H369.66a24.59 24.59 0 0 1-24.56-24.58v-36.25a24.58 24.58 0 0 1 24.56-24.56h53.51V796.06a14.27 14.27 0 1 1 28.55 0v313.77h30.19V296.36a25.45 25.45 0 0 1 25.45-25.45H909a25.45 25.45 0 0 1 25.43 25.43v813.46h30.26V796.21a14.27 14.27 0 0 1 28.55 0v313.61h53.51a24.6 24.6 0 0 1 24.56 24.56z"></path></svg><svg id="door-icon-dunco-white" data-name="Слой 1" viewBox="0 0 1417.32 1417.32" width="1000" height="1000" y="1000"><defs><style>.cls-1{fill:#fff}</style></defs><title>дверь-ико</title><path class="cls-1" d="M912.94 306.57H517.6v810.32h395.34zm-17.83 467.85a14.27 14.27 0 1 1-28.55 0v-52.73a14.27 14.27 0 0 1 28.55 0zm0-217.22a25.47 25.47 0 0 1-25.43 25.43H566a25.45 25.45 0 0 1-25.43-25.43V392.68A25.45 25.45 0 0 1 566 367.25h303.68a25.48 25.48 0 0 1 25.43 25.43z" transform="translate(-7.09 -7.09)"></path><path class="cls-1" d="M373.65 1138.38h669.09v28.28H373.65zM562.05 388.71h297.42V547H562.05z"></path><path class="cls-1" d="M715.75 7.09C324.37 7.09 7.09 324.37 7.09 715.75s317.29 708.66 708.66 708.66 708.66-317.29 708.66-708.66S1107.12 7.09 715.75 7.09zm-285.5 246.12a25.45 25.45 0 0 1 25.43-25.43h519.18a25.45 25.45 0 0 1 25.43 25.43v492.61a14.27 14.27 0 0 1-28.55 0V256.33H458.8v489.29a14.27 14.27 0 1 1-28.55 0zm648.12 924.52a24.6 24.6 0 0 1-24.56 24.58H376.75a24.59 24.59 0 0 1-24.56-24.58v-36.25a24.58 24.58 0 0 1 24.56-24.56h53.51V803.15a14.27 14.27 0 1 1 28.55 0v313.77H489V303.45A25.45 25.45 0 0 1 514.48 278h401.57a25.45 25.45 0 0 1 25.43 25.43v813.46h30.26V803.3a14.27 14.27 0 1 1 28.55 0v313.61h53.51a24.6 24.6 0 0 1 24.56 24.56z" transform="translate(-7.09 -7.09)"></path></svg><svg data-name="Слой 1" viewBox="0 0 1417.32 1417.32" width="1000" height="1000" id="mail-icon-dunco-black" y="2000"><title>mail-icon-dunco</title><path d="M1124.61 480.57a62.13 62.13 0 0 0-62.15-62h-706a62.11 62.11 0 0 0-62 62v482.54a62.11 62.11 0 0 0 62 62h706.29a62.11 62.11 0 0 0 62-62h-.12zm-62.53 490a26.11 26.11 0 0 1-36.83 1.08L792.74 750.78l-65.15 58.43a26.05 26.05 0 0 1-34.79.12l-63.47-56.63L395.5 971.41a26 26 0 0 1-17.76 7 27 27 0 0 1-19.2-8.28 26.26 26.26 0 0 1 1.2-37L590.1 717.42 358.79 510.71a26.131 26.131 0 1 1 34.79-39l250.27 223.88a42.18 42.18 0 0 1 4.2 3.72c0 .24.24.36.48.6l61.38 54.95 315.29-283a26.123 26.123 0 0 1 34.91 38.87l-228.55 205 229.51 218a26 26 0 0 1 1.01 36.84z"></path><path d="M708.66 0C317.29 0 0 317.28 0 708.66s317.29 708.66 708.66 708.66 708.66-317.29 708.66-708.66S1100.04 0 708.66 0zm468.13 963.11a114.46 114.46 0 0 1-114.34 114.34h-706c-63 0-114.22-51.35-114.22-114.34V480.45a114.36 114.36 0 0 1 114.18-114.33h706.29c63 0 114.33 51.47 114.1 114.46z"></path></svg><svg id="mail-icon-dunco-white" data-name="Слой 1" viewBox="0 0 1417.32 1417.32" width="1000" height="1000" y="3000"><defs><style>.cls-1{fill:#fff}</style></defs><title>mail-icon-dunco</title><path class="cls-1" d="M1131.7 487.64a62.13 62.13 0 0 0-62.15-62h-706a62.11 62.11 0 0 0-62 62v482.54a62.11 62.11 0 0 0 62 62h706.29a62.11 62.11 0 0 0 62-62h-.12zm-62.53 490a26.11 26.11 0 0 1-36.83 1.08L799.83 757.85l-65.15 58.43a26.05 26.05 0 0 1-34.79.12l-63.47-56.63-233.83 218.71a26 26 0 0 1-17.76 7 27 27 0 0 1-19.2-8.28 26.26 26.26 0 0 1 1.2-37l230.36-215.71-231.31-206.71a26.13 26.13 0 1 1 34.79-39l250.27 223.88a42.18 42.18 0 0 1 4.2 3.72c0 .24.24.36.48.6L717 761.93l315.29-283a26.12 26.12 0 0 1 34.91 38.87l-228.55 205 229.51 218a26 26 0 0 1 1.01 36.84z" transform="translate(-7.09 -7.07)"></path><path class="cls-1" d="M715.75 7.07C324.38 7.07 7.09 324.35 7.09 715.73s317.29 708.66 708.66 708.66 708.66-317.29 708.66-708.66S1107.13 7.07 715.75 7.07zm468.13 963.11a114.46 114.46 0 0 1-114.34 114.34h-706c-63 0-114.22-51.35-114.22-114.34V487.52A114.36 114.36 0 0 1 363.5 373.19h706.29c63 0 114.33 51.47 114.1 114.46z" transform="translate(-7.09 -7.07)"></path></svg><svg data-name="Слой 1" viewBox="0 0 1417.35 1417.35" width="1000" height="1000" id="roleta-icon-dunco-black" y="4000"><title>Монтажная область 1</title><path d="M530.64 994.61h376.22v46.25H530.64zM530.64 1068.85h376.22v46.25H530.64zM371.13 338.2h152.25v29.02H371.13zM401.77 501.9l95.92-83.46v-23.25h-95.92V501.9zM530.64 920.39h376.22v46.25H530.64zM937.12 699.68H500.36v44.24h436.76v-44.24z"></path><path d="M708.67 0C317.29 0 0 317.29 0 708.67s317.29 708.67 708.67 708.67 708.67-317.34 708.67-708.67S1100.05 0 708.67 0zm500.49 671.44a21.44 21.44 0 0 1-20.24 14h-94.51v422.29a35.38 35.38 0 0 1-35.34 35.32H378.38a35.34 35.34 0 0 1-35.3-35.32v-107.2a14 14 0 1 1 28 0v107.2a7.36 7.36 0 0 0 7.35 7.35h124.22V771.92h-13.28a17 17 0 0 1-17-17v-66.25a17 17 0 0 1 17-17h458.75a17 17 0 0 1 17 17v66.25a17 17 0 0 1-17 17h-13.29v343.19h124.24a7.36 7.36 0 0 0 7.35-7.35V677.92l-86.7-75.5-261-227.12-261 227.12-86.66 75.5v256.4a14 14 0 0 1-28 0V685.46h-94.5a21.6 21.6 0 0 1-14.19-37.88L373.8 526.24V395.18h-8.75a21.92 21.92 0 0 1-21.89-21.89v-41.17a21.92 21.92 0 0 1 21.89-21.91h164.41a21.93 21.93 0 0 1 21.91 21.91v39.59L704.65 238.3a21.54 21.54 0 0 1 28.17 0l217.5 189.29a14 14 0 1 1-18.4 21.11L718.75 263.15 520.86 435.36 397 543.19 265.61 657.47h86.25l352.79-307a21.59 21.59 0 0 1 28.17 0l352.79 307h86.25l-189.8-165.15a14 14 0 0 1 18.37-21.11l202.67 176.37a21.43 21.43 0 0 1 6.06 23.85z"></path><path d="M530.64 846.14h376.22v46.25H530.64zM530.64 771.92h376.22v46.25H530.64z"></path></svg><svg id="roleta-icon-dunco-white" data-name="Слой 1" viewBox="0 0 1417.35 1417.35" width="1000" height="1000" y="5000"><defs><style>.cls-1{fill:#fff}</style></defs><title>домик-ико</title><path class="cls-1" d="M530.64 994.61h376.22v46.25H530.64zM530.64 1068.85h376.22v46.25H530.64zM371.13 338.2h152.25v29.02H371.13zM401.77 501.9l95.92-83.46v-23.25h-95.92V501.9zM530.64 920.39h376.22v46.25H530.64zM937.12 699.68H500.36v44.24h436.76v-44.24z"></path><path class="cls-1" d="M715.75 7.08C324.37 7.08 7.08 324.37 7.08 715.75s317.29 708.67 708.67 708.67 708.67-317.29 708.67-708.67S1107.13 7.08 715.75 7.08zm500.49 671.44a21.44 21.44 0 0 1-20.24 14h-94.51v422.29a35.38 35.38 0 0 1-35.34 35.32H385.46a35.34 35.34 0 0 1-35.3-35.32v-107.2a14 14 0 0 1 28 0v107.2a7.36 7.36 0 0 0 7.35 7.35h124.22V779h-13.28a17 17 0 0 1-17-17v-66.25a17 17 0 0 1 17-17H955.2a17 17 0 0 1 17 17V762a17 17 0 0 1-17 17h-13.29v343.19h124.24a7.36 7.36 0 0 0 7.35-7.35V685l-86.7-75.5-261-227.12-261 227.12-86.66 75.5v256.4a14 14 0 0 1-28 0V692.54h-94.5a21.6 21.6 0 0 1-14.19-37.88l139.43-121.34V402.26h-8.75a21.92 21.92 0 0 1-21.89-21.89V339.2a21.92 21.92 0 0 1 21.89-21.91h164.41a21.93 21.93 0 0 1 21.91 21.91v39.59l153.28-133.41a21.54 21.54 0 0 1 28.17 0l217.5 189.29a14 14 0 1 1-18.4 21.11L725.83 270.23 527.94 442.44 404.06 550.27 272.69 664.55h86.25l352.79-307a21.59 21.59 0 0 1 28.17 0l352.79 307h86.25L989.14 499.4a14 14 0 0 1 18.37-21.11l202.67 176.37a21.43 21.43 0 0 1 6.06 23.85z" transform="translate(-7.08 -7.08)"></path><path class="cls-1" d="M530.64 846.14h376.22v46.25H530.64zM530.64 771.92h376.22v46.25H530.64z"></path></svg><svg data-name="Слой 1" viewBox="0 0 1417.35 1417.35" width="1000" height="1000" id="roleta-window-icon-dunco-black" y="6000"><title>Монтажная область 1</title><path d="M958.43 679.24h41.53v52.89h-41.53zM921.81 866.61h4.83a7.67 7.67 0 0 0 7.66-7.66V371.19h-20.15v487.73a7.67 7.67 0 0 0 7.65 7.69zM416.53 371.19h473.49v52.89H416.53z"></path><path d="M738 756.24v267.92h224.92V756.24h-4.52v102.68a31.83 31.83 0 0 1-31.8 31.78h-4.83A31.81 31.81 0 0 1 890 858.92V756.24zM958.45 602.23h41.53v52.89h-41.53zM958.45 448.2h41.53v52.89h-41.53zM958.45 371.19h41.53v52.89h-41.53zM958.45 525.23h41.53v52.89h-41.53zM416.53 602.23h473.49v52.89H416.53zM416.53 448.2h473.49v52.89H416.53z"></path><path d="M708.67 0C317.29 0 0 317.29 0 708.67s317.29 708.67 708.67 708.67 708.67-317.34 708.67-708.67S1100.05 0 708.67 0zM339.49 316.45a22.32 22.32 0 0 1 22.31-22.31h692.91a22.32 22.32 0 0 1 22.29 22.31v82.77a12.06 12.06 0 1 1-24.12 0v-81H363.6v551.19a12.06 12.06 0 0 1-24.12 0zm786.2 804a21.37 21.37 0 0 1-21.36 21.36H312.17a21.39 21.39 0 0 1-21.38-21.36v-44a21.39 21.39 0 0 1 21.38-21.36h27.32v-128a12.06 12.06 0 0 1 24.12 0v128h28.79V368.58A21.57 21.57 0 0 1 413.92 347h588.6a21.56 21.56 0 0 1 21.53 21.53v686.51h28.87V457.21a12.07 12.07 0 0 1 24.14 0v597.88h27.3a21.37 21.37 0 0 1 21.36 21.36z"></path><path d="M1000 756.24h-12.89v269.68a22.38 22.38 0 0 1-22.36 22.34H736.22a22.38 22.38 0 0 1-22.36-22.34V756.24h-11.24v269.68a22.36 22.36 0 0 1-22.34 22.34H451.75a22.36 22.36 0 0 1-22.33-22.34V756.24h-12.89v298.85H1000zM314.94 1079.22h786.64v38.5H314.94zM416.53 525.23h473.49v52.89H416.53zM416.53 679.24h473.49v52.89H416.53z"></path><path d="M453.54 756.27H678.5v267.9H453.54z"></path></svg><svg id="roleta-window-icon-dunco-white" data-name="Слой 1" viewBox="0 0 1417.35 1417.35" width="1000" height="1000" y="7000"><defs><style>.cls-1{fill:#fff}</style></defs><title>окно ролет-ико</title><path class="cls-1" d="M958.43 679.24h41.53v52.89h-41.53z"></path><path class="cls-1" d="M928.89 873.69h4.83a7.67 7.67 0 0 0 7.66-7.66V378.27h-20.15V866a7.67 7.67 0 0 0 7.66 7.69z" transform="translate(-7.08 -7.08)"></path><path class="cls-1" d="M416.53 371.19h473.49v52.89H416.53z"></path><path class="cls-1" d="M745.08 763.32v267.92H970V763.32h-4.52V866a31.83 31.83 0 0 1-31.8 31.78h-4.83A31.81 31.81 0 0 1 897.12 866V763.32z" transform="translate(-7.08 -7.08)"></path><path class="cls-1" d="M958.45 602.23h41.53v52.89h-41.53zM958.45 448.2h41.53v52.89h-41.53zM958.45 371.19h41.53v52.89h-41.53zM958.45 525.23h41.53v52.89h-41.53zM416.53 602.23h473.49v52.89H416.53zM416.53 448.2h473.49v52.89H416.53z"></path><path class="cls-1" d="M715.75 7.08C324.37 7.08 7.08 324.37 7.08 715.75s317.29 708.67 708.67 708.67 708.67-317.29 708.67-708.67S1107.13 7.08 715.75 7.08zM346.57 323.53a22.32 22.32 0 0 1 22.31-22.31h692.91a22.32 22.32 0 0 1 22.31 22.31v82.77a12.06 12.06 0 1 1-24.12 0v-80.95h-689.3v551.14a12.06 12.06 0 0 1-24.12 0zm786.2 804.05a21.37 21.37 0 0 1-21.36 21.36H319.25a21.39 21.39 0 0 1-21.38-21.36v-44a21.39 21.39 0 0 1 21.38-21.36h27.32v-128a12.06 12.06 0 1 1 24.12 0v128h28.79V375.66A21.57 21.57 0 0 1 421 354.13h588.6a21.56 21.56 0 0 1 21.53 21.53v686.51H1060V464.29a12.07 12.07 0 1 1 24.14 0v597.88h27.3a21.37 21.37 0 0 1 21.36 21.36z" transform="translate(-7.08 -7.08)"></path><path class="cls-1" d="M1007.06 763.32h-12.87V1033a22.38 22.38 0 0 1-22.36 22.34H743.3a22.38 22.38 0 0 1-22.36-22.34V763.32H709.7V1033a22.36 22.36 0 0 1-22.34 22.34H458.83A22.36 22.36 0 0 1 436.5 1033V763.32h-12.89v298.85h583.45z" transform="translate(-7.08 -7.08)"></path><path class="cls-1" d="M314.94 1079.22h786.64v38.5H314.94zM416.53 525.23h473.49v52.89H416.53zM416.53 679.24h473.49v52.89H416.53zM453.54 756.27H678.5v267.9H453.54z"></path></svg><svg data-name="Слой 1" viewBox="0 0 1417.32 1417.32" width="1000" height="1000" id="site-icon-dunco-black" y="8000"><title>www-icon-dunco</title><path d="M290.22 887.52a63.66 63.66 0 0 0 63.51 63.63h711.51a63.74 63.74 0 0 0 63.51-63.63v-21.17H290.22zM1065.48 372.75H353.73a63.56 63.56 0 0 0-63.51 63.51v377.17h838.77V436.26a63.71 63.71 0 0 0-63.51-63.51z"></path><path d="M708.66 0C317.29 0 0 317.28 0 708.66s317.29 708.66 708.66 708.66 708.66-317.29 708.66-708.66S1100.04 0 708.66 0zm473 887.53c0 64.36-52.32 116.56-116.43 116.56H736.01v111.2h164.13a26.46 26.46 0 0 1 0 52.92H518.83a26.46 26.46 0 0 1 0-52.92h164.13v-111.2H353.73c-64.36 0-116.43-52.44-116.43-116.56V436.26a116.6 116.6 0 0 1 116.43-116.43h711.51a116.44 116.44 0 0 1 116.43 116.44z"></path></svg><svg id="site-icon-dunco-white" data-name="Слой 1" viewBox="0 0 1417.32 1417.32" width="1000" height="1000" y="9000"><defs><style>.cls-1{fill:#fff}</style></defs><title>www-icon-dunco</title><path class="cls-1" d="M297.31 894.59a63.66 63.66 0 0 0 63.51 63.63h711.51a63.74 63.74 0 0 0 63.51-63.63v-21.17H297.31zM1072.57 379.82H360.82a63.56 63.56 0 0 0-63.51 63.51V820.5h838.77V443.33a63.71 63.71 0 0 0-63.51-63.51z" transform="translate(-7.09 -7.07)"></path><path class="cls-1" d="M715.75 7.07C324.38 7.07 7.09 324.35 7.09 715.73s317.29 708.66 708.66 708.66 708.66-317.29 708.66-708.66S1107.13 7.07 715.75 7.07zm473 887.53c0 64.36-52.32 116.56-116.43 116.56H743.1v111.2h164.13a26.46 26.46 0 0 1 0 52.92H525.92a26.46 26.46 0 0 1 0-52.92h164.13v-111.2H360.82c-64.36 0-116.43-52.44-116.43-116.56V443.33A116.6 116.6 0 0 1 360.82 326.9h711.51a116.44 116.44 0 0 1 116.43 116.44z" transform="translate(-7.09 -7.07)"></path></svg><svg data-name="Слой 1" viewBox="0 0 1417.32 1417.32" width="1000" height="1000" id="tel-icon-dunco-black" y="10000"><title>tel-icon-dunco</title><path d="M909.09 860.38l-.35-.47c-5.84-6.31-15.42-13.67-27.1-13.67-11.91 0-22.08 7.71-28.38 14.13l-64.48 64.36c-3.15 3.15-13 13-28.62 13a41.23 41.23 0 0 1-18.57-4.67c-.82-.35-1.52-.93-2.34-1.28-5.37-3.39-11.8-6.66-18.57-10a238.72 238.72 0 0 1-23.13-12.62c-60.51-38.23-115.29-88.14-167.27-152.15l-.12-.23c-28.62-36.33-47.54-66.81-60.86-99.17l-.58-1.75c-3.39-10.75-6.42-26.52 9.81-42.75a7 7 0 0 1 .93-.93c16.35-14.72 31.42-29.79 47.31-45.91 5.37-5.26 10.63-10.75 16.12-16.24 20-20 20-38.43 0-58.29l-51.4-51.4c-6-6.31-12-12.26-17.87-18.34-11.45-11.8-22.43-22.89-33.87-33.64l-.58-.58c-6.07-6.07-15.65-13.2-27.45-13.2-9.69 0-19.39 4.67-28.62 13.32l-64.24 64.24c-15.65 15.65-24.06 33.87-25.93 56-2.92 34.46 3.5 71 21 117.86 28.5 76.86 71.37 148.34 135.61 225.79 77.68 92.74 171.36 166 277.88 217.61 38.9 18.57 90.88 40.42 146.83 44 2.8.23 5.84.23 8.64.23 29.44 0 51.86-9.69 70.78-30 11.68-13.67 24.18-25.93 36.33-37.61 8.18-7.94 15.65-15.07 23-23-.23.23-.23 0 0 0 19.16-20 19.16-39.71-.23-58.87z"></path><path d="M708.66 0C317.29 0 0 317.28 0 708.66s317.29 708.66 708.66 708.66 708.66-317.29 708.66-708.66S1100.04 0 708.66 0zm-6.5 455a25.63 25.63 0 0 1 29.44-20.79 293 293 0 0 1 238.75 238.78 25.62 25.62 0 0 1-20.91 29.44c-1.52.12-2.8.35-4.32.35a25.32 25.32 0 0 1-25.11-21.15 239 239 0 0 0-67.4-129.89c-35.74-35.74-80.6-59.1-129.89-67.4a25.15 25.15 0 0 1-20.56-29.31zm347.44 603.23c-8.18 8.41-16.35 16.59-24.53 24.3-11.8 11.45-23.13 22.19-32.94 34-.12.47-.58.58-.7.93-28.62 31.07-65.18 46.72-108.63 46.72-3.85 0-7.94-.12-11.91-.35-64.59-4.09-122.41-28.38-165.63-48.94-113.42-54.78-212.59-132.58-295.05-231-68-81.65-113.54-157.92-144-240.27-12.53-33.56-28.65-84.69-24.21-139.69 3-34 16.82-63.43 40.88-87.49l64-64.59.35-.35c18.92-18.11 41.12-27.68 64-27.68s44.85 9.58 63.08 27.68c12.26 11.21 24.18 23.36 35.39 35 5.72 6 11.68 12 17.52 17.87l51.4 51.4c39.6 39.48 39.6 90.76 0 130.24-5.26 5.26-10.51 10.75-15.77 16-13.9 14.13-28.27 28.85-43.69 43 11.45 25.35 27.33 50.46 50.81 80.13 48.59 59.69 99.29 105.83 155 141.22 5.49 3.39 11.8 6.66 18.57 10 4.79 2.45 9.69 4.91 14.6 7.48l59.45-59.34c19-18.92 41.23-29 64.36-29 23.36 0 45.44 10.16 63.66 29.2l103.37 103.72c19 18.81 29 41.23 29 64.59.01 23.19-9.8 45.85-28.38 65.24zm61.39-363.63a27 27 0 0 1-4.32.35 25.33 25.33 0 0 1-25.11-21c-14.83-87.72-56.3-167.73-120-231.39-63.54-63.43-143.56-105-231.39-120a25.4 25.4 0 0 1-20.79-29.32c2.34-13.78 15.42-23.24 29.08-20.79 98.35 16.82 187.71 63.08 259 134.33s117.51 160.61 134.21 258.84a24.88 24.88 0 0 1-20.67 29z"></path></svg><svg id="tel-icon-dunco-white" data-name="Слой 1" viewBox="0 0 1417.32 1417.32" width="1000" height="1000" y="11000"><defs><style>.cls-1{fill:#fff}</style></defs><title>tel-icon-dunco</title><path class="cls-1" d="M916.18 867.45l-.35-.47c-5.84-6.31-15.42-13.67-27.1-13.67-11.91 0-22.08 7.71-28.38 14.13l-64.48 64.36c-3.15 3.15-13 13-28.62 13a41.23 41.23 0 0 1-18.57-4.67c-.82-.35-1.52-.93-2.34-1.28-5.37-3.39-11.8-6.66-18.57-10a238.72 238.72 0 0 1-23.13-12.62C644.13 878 589.35 828.09 537.37 764.08l-.12-.23c-28.62-36.33-47.54-66.81-60.86-99.17l-.58-1.75c-3.39-10.75-6.42-26.52 9.81-42.75a7 7 0 0 1 .93-.93c16.35-14.72 31.42-29.79 47.31-45.91 5.37-5.26 10.63-10.75 16.12-16.24 20-20 20-38.43 0-58.29l-51.4-51.4c-6-6.31-12-12.26-17.87-18.34-11.45-11.8-22.43-22.89-33.87-33.64l-.58-.58c-6.07-6.07-15.65-13.2-27.45-13.2-9.69 0-19.39 4.67-28.62 13.32l-64.24 64.24c-15.65 15.65-24.06 33.87-25.93 56-2.92 34.46 3.5 71 21 117.86 28.5 76.86 71.37 148.34 135.61 225.79 77.68 92.74 171.36 166 277.88 217.61 38.9 18.57 90.88 40.42 146.83 44 2.8.23 5.84.23 8.64.23 29.44 0 51.86-9.69 70.78-30 11.68-13.67 24.18-25.93 36.33-37.61 8.18-7.94 15.65-15.07 23-23-.23.23-.23 0 0 0 19.16-20 19.16-39.71-.23-58.87z" transform="translate(-7.09 -7.07)"></path><path class="cls-1" d="M715.75 7.07C324.38 7.07 7.09 324.35 7.09 715.73s317.29 708.66 708.66 708.66 708.66-317.29 708.66-708.66S1107.13 7.07 715.75 7.07zm-6.5 455a25.63 25.63 0 0 1 29.44-20.79 293 293 0 0 1 238.75 238.78 25.62 25.62 0 0 1-20.91 29.44c-1.52.12-2.8.35-4.32.35a25.32 25.32 0 0 1-25.11-21.15 239 239 0 0 0-67.4-129.89c-35.74-35.74-80.6-59.1-129.89-67.4a25.15 25.15 0 0 1-20.56-29.31zm347.44 603.23c-8.18 8.41-16.35 16.59-24.53 24.3-11.8 11.45-23.13 22.19-32.94 34-.12.47-.58.58-.7.93-28.62 31.07-65.18 46.72-108.63 46.72-3.85 0-7.94-.12-11.91-.35-64.59-4.09-122.41-28.38-165.63-48.94-113.42-54.78-212.59-132.58-295.05-231-68-81.65-113.54-157.92-144-240.27C260.77 617.13 244.65 566 249.09 511c3-34 16.82-63.43 40.88-87.49l64-64.59.35-.35c18.92-18.11 41.12-27.68 64-27.68s44.85 9.58 63.08 27.68c12.26 11.21 24.18 23.36 35.39 35 5.72 6 11.68 12 17.52 17.87l51.4 51.4c39.6 39.48 39.6 90.76 0 130.24-5.26 5.26-10.51 10.75-15.77 16-13.9 14.13-28.27 28.85-43.69 43 11.45 25.35 27.33 50.46 50.81 80.13 48.59 59.69 99.29 105.83 155 141.22 5.49 3.39 11.8 6.66 18.57 10 4.79 2.45 9.69 4.91 14.6 7.48l59.45-59.34c19-18.92 41.23-29 64.36-29 23.36 0 45.44 10.16 63.66 29.2l103.37 103.72c19 18.81 29 41.23 29 64.59.01 23.19-9.8 45.85-28.38 65.24zm61.39-363.63a27 27 0 0 1-4.32.35 25.33 25.33 0 0 1-25.11-21c-14.83-87.72-56.3-167.73-120-231.39-63.54-63.43-143.56-105-231.39-120a25.4 25.4 0 0 1-20.79-29.32c2.34-13.78 15.42-23.24 29.08-20.79 98.35 16.82 187.71 63.08 259 134.33s117.51 160.61 134.21 258.84a24.88 24.88 0 0 1-20.67 29z" transform="translate(-7.09 -7.07)"></path></svg><svg data-name="Слой 1" viewBox="0 0 1417.35 1417.35" width="1000" height="1000" id="vorota-icon-dunco-black" y="12000"><title>Монтажная область 1</title><path d="M561.74 589.46a321 321 0 0 1 54.69-19.6v-26.39a297.13 297.13 0 0 0-54.69 21.69zM561.76 978.08h54.67v30.66h-54.67zM561.74 953.13h54.69V595.92a295.58 295.58 0 0 0-54.69 21.67zM641.38 978.08h54.67v30.66h-54.67zM641.38 824.69h54.67v128.45h-54.67zM696 583.6a337.06 337.06 0 0 0-54.67 6.26v150.72H696zM720.99 978.08h54.67v30.66h-54.67zM482.13 627.58v15.74a289.66 289.66 0 0 1 54.67-40.86V579.7c-30.8 20.11-48.68 40.44-54.67 47.88zM482.13 978.08h54.67v30.66h-54.67zM406.68 978.08h50.51v30.66h-50.51zM200.4 512.68h219.91v41.44H200.4zM239 617.47h36.79a12.47 12.47 0 1 1 0 24.94H239v119.25h36.79a12.47 12.47 0 1 1 0 24.94H239v119.32h36.79a12.47 12.47 0 1 1 0 24.94H239v114.53h142.74v-42.47h-36.82a12.5 12.5 0 1 1 0-25h36.81V858.71h-36.81a12.47 12.47 0 0 1 0-24.94h36.81V714.52h-36.81a12.47 12.47 0 1 1 0-24.94h36.81v-110.5H239zM310.36 428.83a71.48 71.48 0 0 0-70.26 58.9h140.52a71.48 71.48 0 0 0-70.26-58.9zM482.13 680v273.13h54.67v-321c-30.8 20.1-48.68 40.46-54.67 47.87zM720.99 824.69h54.67v128.45h-54.67zM406.68 688.25h50.51v264.89h-50.51zM406.68 635.8h50.51v27.48h-50.51zM696 531.18a337.36 337.36 0 0 0-54.67 6.26v26.92a369.76 369.76 0 0 1 54.67-5.72zM959.85 635.8h50.51v27.48h-50.51zM880.23 579.92v22.58a290.63 290.63 0 0 1 54.69 40.83V627.6c-6.05-7.41-24-27.68-54.69-47.68zM959.85 688.25h50.51v264.89h-50.51zM959.85 978.08h50.51v30.66h-50.51zM1106.67 428.83a71.48 71.48 0 0 0-70.26 58.9h140.51a71.44 71.44 0 0 0-70.25-58.9zM1035.29 689.58h36.81a12.47 12.47 0 0 1 0 24.94h-36.81v119.25h36.81a12.47 12.47 0 0 1 0 24.94h-36.81v119.21h36.81a12.5 12.5 0 1 1 0 25h-36.81v42.42H1178V930.82h-36.81a12.47 12.47 0 0 1 0-24.94H1178V786.61h-36.81a12.47 12.47 0 0 1 0-24.94H1178V642.41h-36.81a12.47 12.47 0 0 1 0-24.94H1178v-38.39h-142.71z"></path><path d="M708.67 0C317.29 0 0 317.29 0 708.67s317.29 708.67 708.67 708.67 708.67-317.34 708.67-708.67S1100.05 0 708.67 0zm520.43 579.08H1203v478.74a12.46 12.46 0 0 1-12.45 12.47h-167.73a12.46 12.46 0 0 1-12.47-12.45v-24.16H406.68v24.14a12.46 12.46 0 0 1-12.45 12.47H226.52a12.46 12.46 0 0 1-12.47-12.45V579.08h-26.13a12.48 12.48 0 0 1-12.47-12.47V500.2a12.48 12.48 0 0 1 12.47-12.47h27a96.29 96.29 0 0 1 191 0h27a12.48 12.48 0 0 1 12.47 12.47v66.41a12.48 12.48 0 0 1-12.47 12.47h-26.24v31.78h50.51v-63.6a12.47 12.47 0 1 1 24.94 0v43.66a289.66 289.66 0 0 1 54.67-40.86v-40.24a12.47 12.47 0 1 1 24.94 0V537a321 321 0 0 1 54.69-19.62v-32.46a12.47 12.47 0 0 1 24.94 0v27A369.76 369.76 0 0 1 696 506.2v-62.28a12.47 12.47 0 1 1 24.94 0v62.29a372.88 372.88 0 0 1 54.67 5.7v-27a12.47 12.47 0 0 1 24.94 0v32.5A321 321 0 0 1 855.28 537v-27.18a12.47 12.47 0 1 1 24.94 0V550a289.67 289.67 0 0 1 54.7 40.88v-43.62a12.47 12.47 0 1 1 24.94 0v63.6h50.51v-31.78h-26.14a12.48 12.48 0 0 1-12.47-12.47V500.2a12.48 12.48 0 0 1 12.47-12.47h27a96.29 96.29 0 0 1 191 0h27a12.48 12.48 0 0 1 12.47 12.47v66.41a12.46 12.46 0 0 1-12.45 12.47h-.1z"></path><path d="M641.38 765.52h134.28v34.21H641.38zM996.7 512.7h219.93v41.44H996.7zM721 558.64a369.76 369.76 0 0 1 54.67 5.72v-26.88a337.21 337.21 0 0 0-54.67-6.3zM721 740.58h54.67V589.92a337.19 337.19 0 0 0-54.67-6.3zM800.62 978.08h54.67v30.66h-54.67zM800.6 953.13h54.69V617.74A297.11 297.11 0 0 0 800.6 596zM880.24 978.08h54.67v30.66h-54.67zM880.23 632.3v320.83h54.69V680c-6.05-7.39-24-27.63-54.69-47.7zM800.6 569.86a321 321 0 0 1 54.69 19.6v-24.14a297.11 297.11 0 0 0-54.69-21.76z"></path></svg><svg id="vorota-icon-dunco-white" data-name="Слой 1" viewBox="0 0 1417.35 1417.35" width="1000" height="1000" y="13000"><defs><style>.cls-1{fill:#fff}</style></defs><title>ворота-ико</title><path class="cls-1" d="M568.82 596.54a321 321 0 0 1 54.69-19.6v-26.39a297.13 297.13 0 0 0-54.69 21.69z" transform="translate(-7.08 -7.08)"></path><path class="cls-1" d="M561.76 978.08h54.67v30.66h-54.67z"></path><path class="cls-1" d="M568.82 960.21h54.69V603a295.58 295.58 0 0 0-54.69 21.67z" transform="translate(-7.08 -7.08)"></path><path class="cls-1" d="M641.38 978.08h54.67v30.66h-54.67zM641.38 824.69h54.67v128.45h-54.67z"></path><path class="cls-1" d="M703.12 590.68a337.06 337.06 0 0 0-54.67 6.26v150.72h54.67z" transform="translate(-7.08 -7.08)"></path><path class="cls-1" d="M720.99 978.08h54.67v30.66h-54.67z"></path><path class="cls-1" d="M489.21 634.66v15.74a289.66 289.66 0 0 1 54.67-40.86v-22.76c-30.76 20.11-48.68 40.44-54.67 47.88z" transform="translate(-7.08 -7.08)"></path><path class="cls-1" d="M482.13 978.08h54.67v30.66h-54.67zM406.68 978.08h50.51v30.66h-50.51zM200.4 512.68h219.91v41.44H200.4z"></path><path class="cls-1" d="M246.07 624.55h36.79a12.47 12.47 0 0 1 0 24.94h-36.79v119.25h36.79a12.47 12.47 0 0 1 0 24.94h-36.79V913h36.79a12.47 12.47 0 0 1 0 24.94h-36.79v114.53h142.75V1010H352a12.48 12.48 0 0 1 0-25h36.81V865.79H352a12.47 12.47 0 1 1 0-24.94h36.81V721.6H352a12.47 12.47 0 1 1 0-24.94h36.81v-110.5H246.07zM317.44 435.91a71.48 71.48 0 0 0-70.26 58.9H387.7a71.48 71.48 0 0 0-70.26-58.9zM489.21 687.08v273.13h54.67v-321c-30.76 20.1-48.68 40.46-54.67 47.87z" transform="translate(-7.08 -7.08)"></path><path class="cls-1" d="M720.99 824.69h54.67v128.45h-54.67zM406.68 688.25h50.51v264.89h-50.51zM406.68 635.8h50.51v27.48h-50.51z"></path><path class="cls-1" d="M703.12 538.26a337.36 337.36 0 0 0-54.67 6.26v26.92a369.76 369.76 0 0 1 54.67-5.72z" transform="translate(-7.08 -7.08)"></path><path class="cls-1" d="M959.85 635.8h50.51v27.48h-50.51z"></path><path class="cls-1" d="M887.31 587v22.58A290.63 290.63 0 0 1 942 650.41v-15.73c-6.05-7.41-24-27.68-54.69-47.68z" transform="translate(-7.08 -7.08)"></path><path class="cls-1" d="M959.85 688.25h50.51v264.89h-50.51zM959.85 978.08h50.51v30.66h-50.51z"></path><path class="cls-1" d="M1113.75 435.91a71.48 71.48 0 0 0-70.26 58.9H1184a71.44 71.44 0 0 0-70.25-58.9zM1042.37 696.66h36.81a12.47 12.47 0 1 1 0 24.94h-36.81v119.25h36.81a12.47 12.47 0 1 1 0 24.94h-36.81V985h36.81a12.48 12.48 0 0 1 0 25h-36.81v42.42h142.75V937.9h-36.81a12.47 12.47 0 0 1 0-24.94h36.81V793.69h-36.81a12.47 12.47 0 0 1 0-24.94h36.81V649.49h-36.81a12.47 12.47 0 0 1 0-24.94h36.81v-38.39h-142.75z" transform="translate(-7.08 -7.08)"></path><path class="cls-1" d="M715.75 7.08C324.37 7.08 7.08 324.37 7.08 715.75s317.29 708.67 708.67 708.67 708.67-317.29 708.67-708.67S1107.13 7.08 715.75 7.08zm520.43 579.08h-26.12v478.74a12.46 12.46 0 0 1-12.47 12.47H1029.9a12.46 12.46 0 0 1-12.47-12.47v-24.14H413.76v24.14a12.46 12.46 0 0 1-12.47 12.47H233.6a12.46 12.46 0 0 1-12.47-12.47V586.16H195a12.48 12.48 0 0 1-12.47-12.47v-66.41A12.48 12.48 0 0 1 195 494.81h27a96.29 96.29 0 0 1 191 0h27a12.48 12.48 0 0 1 12.47 12.47v66.41A12.48 12.48 0 0 1 440 586.16h-26.24v31.78h50.51v-63.6a12.47 12.47 0 1 1 24.94 0V598a289.66 289.66 0 0 1 54.67-40.86V516.9a12.47 12.47 0 0 1 24.94 0v27.21a321 321 0 0 1 54.69-19.62V492a12.47 12.47 0 1 1 24.94 0v27a369.76 369.76 0 0 1 54.67-5.72V451a12.47 12.47 0 1 1 24.94 0v62.29a372.88 372.88 0 0 1 54.67 5.7V492a12.47 12.47 0 1 1 24.94 0v32.5a321 321 0 0 1 54.69 19.62V516.9a12.47 12.47 0 0 1 24.94 0v40.22A289.67 289.67 0 0 1 942 598v-43.66a12.47 12.47 0 1 1 24.94 0v63.6h50.51v-31.78h-26.14a12.48 12.48 0 0 1-12.47-12.47v-66.41a12.48 12.48 0 0 1 12.47-12.47h26.95a96.29 96.29 0 0 1 191 0h27a12.48 12.48 0 0 1 12.47 12.47v66.41a12.46 12.46 0 0 1-12.55 12.47z" transform="translate(-7.08 -7.08)"></path><path class="cls-1" d="M641.38 765.52h134.28v34.21H641.38zM996.7 512.7h219.93v41.44H996.7z"></path><path class="cls-1" d="M728.07 565.72a369.76 369.76 0 0 1 54.67 5.72v-26.88a337.2 337.2 0 0 0-54.67-6.3zM728.07 747.66h54.67V597a337.19 337.19 0 0 0-54.67-6.3z" transform="translate(-7.08 -7.08)"></path><path class="cls-1" d="M800.62 978.08h54.67v30.66h-54.67z"></path><path class="cls-1" d="M807.68 960.21h54.69V624.82a297.11 297.11 0 0 0-54.69-21.76z" transform="translate(-7.08 -7.08)"></path><path class="cls-1" d="M880.24 978.08h54.67v30.66h-54.67z"></path><path class="cls-1" d="M887.31 639.38v320.83H942V687.13c-6.05-7.44-24-27.68-54.69-47.75zM807.68 576.94a321 321 0 0 1 54.69 19.6V572.4a297.11 297.11 0 0 0-54.69-21.76z" transform="translate(-7.08 -7.08)"></path></svg><svg data-name="Слой 1" viewBox="0 0 1417.32 1417.32" width="1000" height="1000" id="window-icon-dunco-black" y="14000"><title>Монтажная область 1</title><path d="M744.73 745.13h210.55v263.44H744.73zM744.73 405.46h210.55v263.46H744.73zM461.21 405.46h210.55v263.46H461.21zM461.21 745.13h210.55v263.44H461.21zM311.75 1110.95l792.93.04h.02l.05-38.74-792.95-.07-.05 38.77z"></path><path d="M708.66 0C317.29 0 0 317.28 0 708.66s317.29 708.66 708.66 708.66 708.66-317.32 708.66-708.66S1100 0 708.66 0zM336.51 303.72a23 23 0 0 1 22.94-23H1057a23 23 0 0 1 23 23v102.9a12.16 12.16 0 0 1-24.32.05v-101.6H360.83v565.14a12.16 12.16 0 1 1-24.32 0zm792.56 807.21a24.42 24.42 0 0 1-24.38 24.38H311.8a24.42 24.42 0 0 1-24.36-24.38v-38.7a24.4 24.4 0 0 1 24.36-24.38h24.7V927.93a12.16 12.16 0 1 1 24.32 0v119.92h29V360.33A26.24 26.24 0 0 1 416 334.1h584.36a26.24 26.24 0 0 1 26.21 26.23v687.53h29V464.5a12.16 12.16 0 0 1 24.32-.05v583.4h24.7a24.41 24.41 0 0 1 24.38 24.38z"></path><path d="M1002.31 360.33a1.91 1.91 0 0 0-1.89-1.92H416.06a1.93 1.93 0 0 0-1.89 1.92v687.53h588.14zm-306.23 649.19a23.38 23.38 0 0 1-23.35 23.41H460.26a23.38 23.38 0 0 1-23.35-23.41V744.17a23.39 23.39 0 0 1 23.36-23.38h212.45a23.39 23.39 0 0 1 23.36 23.38zm0-339.65a23.38 23.38 0 0 1-23.36 23.36H460.26a23.38 23.38 0 0 1-23.35-23.36V404.5a23.38 23.38 0 0 1 23.36-23.36h212.45a23.38 23.38 0 0 1 23.36 23.36zm283.54 339.65a23.4 23.4 0 0 1-23.38 23.41H743.77a23.4 23.4 0 0 1-23.36-23.36v-265.4a23.4 23.4 0 0 1 23.36-23.38h212.47a23.41 23.41 0 0 1 23.38 23.38zm0-339.65a23.4 23.4 0 0 1-23.38 23.36H743.77a23.4 23.4 0 0 1-23.36-23.36V404.5a23.4 23.4 0 0 1 23.36-23.36h212.47a23.4 23.4 0 0 1 23.38 23.36z"></path></svg><svg id="window-icon-dunco-white" data-name="Слой 1" viewBox="0 0 1417.32 1417.32" width="1000" height="1000" y="15000"><defs><style>.cls-1{fill:#fff}</style></defs><title>окно-ико</title><path class="cls-1" d="M744.73 745.13h210.55v263.44H744.73zM744.73 405.46h210.55v263.46H744.73zM461.21 405.46h210.55v263.46H461.21zM461.21 745.13h210.55v263.44H461.21zM311.75 1110.95l792.93.04h.02l.05-38.74-792.95-.07-.05 38.77z"></path><path class="cls-1" d="M715.75 7.07C324.38 7.07 7.09 324.35 7.09 715.73s317.29 708.66 708.66 708.66 708.66-317.29 708.66-708.66S1107.13 7.07 715.75 7.07zM343.6 310.79a23 23 0 0 1 22.94-23h697.59a23 23 0 0 1 23 23v102.9a12.16 12.16 0 1 1-24.32 0V312.14H367.92v565.14a12.16 12.16 0 1 1-24.32 0zM1136.16 1118a24.42 24.42 0 0 1-24.38 24.38H318.89a24.42 24.42 0 0 1-24.36-24.38v-38.7a24.4 24.4 0 0 1 24.36-24.38h24.7V935a12.16 12.16 0 1 1 24.32 0v119.92h29V367.4a26.24 26.24 0 0 1 26.21-26.23h584.36a26.24 26.24 0 0 1 26.21 26.23v687.53h29V471.57a12.16 12.16 0 1 1 24.32 0v583.35h24.7a24.41 24.41 0 0 1 24.38 24.38z" transform="translate(-7.09 -7.07)"></path><path class="cls-1" d="M1009.4 367.4a1.91 1.91 0 0 0-1.89-1.92H423.15a1.93 1.93 0 0 0-1.89 1.92v687.53h588.14zm-306.23 649.19a23.38 23.38 0 0 1-23.36 23.41H467.35a23.38 23.38 0 0 1-23.35-23.41V751.24a23.39 23.39 0 0 1 23.36-23.38h212.45a23.39 23.39 0 0 1 23.36 23.38zm0-339.65a23.38 23.38 0 0 1-23.36 23.36H467.35A23.38 23.38 0 0 1 444 676.94V411.57a23.38 23.38 0 0 1 23.36-23.36h212.45a23.38 23.38 0 0 1 23.36 23.36zm283.54 339.65a23.4 23.4 0 0 1-23.38 23.41H750.86a23.4 23.4 0 0 1-23.36-23.36v-265.4a23.4 23.4 0 0 1 23.36-23.38h212.47a23.41 23.41 0 0 1 23.38 23.38zm0-339.65a23.4 23.4 0 0 1-23.38 23.36H750.86a23.4 23.4 0 0 1-23.36-23.36V411.57a23.4 23.4 0 0 1 23.36-23.36h212.47a23.4 23.4 0 0 1 23.38 23.36z" transform="translate(-7.09 -7.07)"></path></svg></svg>